<?xml version="1.0" encoding="UTF-8" standalone="no"?>
<!-- Generator: Adobe Illustrator 16.0.0, SVG Export Plug-In . SVG Version: 6.00 Build 0)  -->

<svg
   xmlns:dc="http://purl.org/dc/elements/1.1/"
   xmlns:cc="http://creativecommons.org/ns#"
   xmlns:rdf="http://www.w3.org/1999/02/22-rdf-syntax-ns#"
   xmlns:svg="http://www.w3.org/2000/svg"
   xmlns="http://www.w3.org/2000/svg"
   xmlns:sodipodi="http://sodipodi.sourceforge.net/DTD/sodipodi-0.dtd"
   xmlns:inkscape="http://www.inkscape.org/namespaces/inkscape"
   version="1.1"
   id="Layer_1"
   x="0px"
   y="0px"
   width="157.04816"
   height="160.2403"
   viewBox="0 0 157.04816 160.24029"
   enable-background="new 0 0 148.129 96.646"
   xml:space="preserve"
   inkscape:version="0.48.2 r9819"
   sodipodi:docname="floor1-v2.svg"><metadata
   id="metadata239"><rdf:RDF><cc:Work
       rdf:about=""><dc:format>image/svg+xml</dc:format><dc:type
         rdf:resource="http://purl.org/dc/dcmitype/StillImage" /></cc:Work></rdf:RDF></metadata><defs
   id="defs237" /><sodipodi:namedview
   pagecolor="#ffffff"
   bordercolor="#666666"
   borderopacity="1"
   objecttolerance="10"
   gridtolerance="10"
   guidetolerance="10"
   inkscape:pageopacity="0"
   inkscape:pageshadow="2"
   inkscape:window-width="1227"
   inkscape:window-height="1231"
   id="namedview235"
   showgrid="false"
   fit-margin-top="0"
   fit-margin-left="0"
   fit-margin-right="0"
   fit-margin-bottom="0"
   inkscape:zoom="3.3606059"
   inkscape:cx="88.00233"
   inkscape:cy="110.57245"
   inkscape:window-x="1236"
   inkscape:window-y="0"
   inkscape:window-maximized="0"
   inkscape:current-layer="g5" />































<g
   id="g3216"
   transform="matrix(0.70710678,-0.70710678,0.70710678,0.70710678,-8.34386,95.24021)"><polygon
     id="polygon3"
     points="145.001,88.414 119.042,88.414 119.042,1.321 135.754,1.321 137.696,10.311 145.001,10.311 "
     style="fill:#6b97b3;fill-opacity:1" /><g
     id="g5">
	<path
   id="path7"
   d="m 11.8,0 h 109.119 v 1.32 h 14.835 c 0,0 11.462,53.184 12.361,81.278 0,0 0.448,4.832 -3.82,6.067 l -26.073,7.192 v -3.933 h -11.237 l -13.71,4.72 v -4.72 H 82.373 l -13.821,4.72 v -4.72 H 57.65 l -13.599,4.72 v -4.72 h -10.9 l -14.047,4.72 v -4.72 H 0 V 22.026 H 11.8 V 0 z"
   inkscape:connector-curvature="0"
   style="fill:#354b59;fill-opacity:1" />
	<path
   id="path9"
   d="m 20.003,0 h 100.916 v 1.32 h 14.835 c 0,0 11.462,53.184 12.361,81.278 0,0 0.449,4.832 -3.821,6.067 l -26.071,7.192 v -3.933 h -11.238 l -13.711,4.72 v -4.72 h -10.9 l -13.822,4.72 v -4.72 h -10.9 l -13.599,4.72 v -4.72 h -10.9 l -14.048,4.72 -0.899,-4.72 V 63.878 h 1.799 V 0 z"
   inkscape:connector-curvature="0"
   style="fill:#84bbdd;fill-opacity:1" />
</g><rect
     id="rect11"
     height="6.7420001"
     width="5.1700001"
     y="4.5799999"
     x="121.738"
     style="fill:#6b97b3;fill-opacity:1" /><rect
     id="rect13"
     height="9.9840002"
     width="5.0570002"
     y="2.5139999"
     x="128.48"
     style="fill:#6b97b3;fill-opacity:1" /><rect
     id="rect15"
     height="21.169001"
     width="6.2919998"
     y="47.284"
     x="136.011"
     style="fill:#6b97b3;fill-opacity:1" /><g
     id="g17"
     style="fill:#354b59;fill-opacity:1">
	<path
   id="path19"
   d="m 144.046,19.976 c 0,-0.256 -0.207,-0.464 -0.464,-0.464 -0.256,0 -0.463,0.208 -0.463,0.464 0,0.255 0.207,0.464 0.463,0.464 0.257,0 0.464,-0.209 0.464,-0.464"
   inkscape:connector-curvature="0"
   style="fill:#354b59;fill-opacity:1" />
	<path
   id="path21"
   d="m 144.046,28.357 c 0,-0.255 -0.207,-0.463 -0.464,-0.463 -0.256,0 -0.463,0.208 -0.463,0.463 0,0.256 0.207,0.464 0.463,0.464 0.257,0 0.464,-0.208 0.464,-0.464"
   inkscape:connector-curvature="0"
   style="fill:#354b59;fill-opacity:1" />
	<path
   id="path23"
   d="m 144.046,36.738 c 0,-0.256 -0.207,-0.464 -0.464,-0.464 -0.256,0 -0.463,0.208 -0.463,0.464 0,0.255 0.207,0.464 0.463,0.464 0.257,0 0.464,-0.208 0.464,-0.464"
   inkscape:connector-curvature="0"
   style="fill:#354b59;fill-opacity:1" />
	<path
   id="path25"
   d="m 144.046,45.119 c 0,-0.255 -0.207,-0.464 -0.464,-0.464 -0.256,0 -0.463,0.209 -0.463,0.464 0,0.256 0.207,0.465 0.463,0.465 0.257,0 0.464,-0.209 0.464,-0.465"
   inkscape:connector-curvature="0"
   style="fill:#354b59;fill-opacity:1" />
	<path
   id="path27"
   d="m 144.046,53.5 c 0,-0.255 -0.207,-0.464 -0.464,-0.464 -0.256,0 -0.463,0.209 -0.463,0.464 0,0.257 0.207,0.465 0.463,0.465 0.257,0 0.464,-0.208 0.464,-0.465"
   inkscape:connector-curvature="0"
   style="fill:#354b59;fill-opacity:1" />
	<path
   id="path29"
   d="m 144.046,61.882 c 0,-0.257 -0.207,-0.464 -0.464,-0.464 -0.256,0 -0.463,0.207 -0.463,0.464 0,0.256 0.207,0.464 0.463,0.464 0.257,0 0.464,-0.208 0.464,-0.464"
   inkscape:connector-curvature="0"
   style="fill:#354b59;fill-opacity:1" />
	<path
   id="path31"
   d="m 144.046,70.263 c 0,-0.256 -0.207,-0.464 -0.464,-0.464 -0.256,0 -0.463,0.208 -0.463,0.464 0,0.257 0.207,0.464 0.463,0.464 0.257,0 0.464,-0.207 0.464,-0.464"
   inkscape:connector-curvature="0"
   style="fill:#354b59;fill-opacity:1" />
	<path
   id="path33"
   d="m 144.046,78.645 c 0,-0.257 -0.207,-0.465 -0.464,-0.465 -0.256,0 -0.463,0.208 -0.463,0.465 0,0.255 0.207,0.464 0.463,0.464 0.257,-10e-4 0.464,-0.21 0.464,-0.464"
   inkscape:connector-curvature="0"
   style="fill:#354b59;fill-opacity:1" />
	<path
   id="path35"
   d="m 144.046,87.024 c 0,-0.255 -0.207,-0.464 -0.464,-0.464 -0.256,0 -0.463,0.209 -0.463,0.464 0,0.257 0.207,0.465 0.463,0.465 0.257,0 0.464,-0.208 0.464,-0.465"
   inkscape:connector-curvature="0"
   style="fill:#354b59;fill-opacity:1" />
	<path
   id="path37"
   d="m 135.755,87.024 c 0,-0.255 -0.208,-0.464 -0.464,-0.464 -0.256,0 -0.464,0.209 -0.464,0.464 0,0.257 0.208,0.465 0.464,0.465 0.256,0 0.464,-0.208 0.464,-0.465"
   inkscape:connector-curvature="0"
   style="fill:#354b59;fill-opacity:1" />
	<path
   id="path39"
   d="m 144.046,11.569 c 0,-0.256 -0.207,-0.464 -0.464,-0.464 -0.256,0 -0.463,0.208 -0.463,0.464 0,0.255 0.207,0.464 0.463,0.464 0.257,0 0.464,-0.208 0.464,-0.464"
   inkscape:connector-curvature="0"
   style="fill:#354b59;fill-opacity:1" />
	<path
   id="path41"
   d="m 137.548,11.569 c 0,-0.256 -0.206,-0.464 -0.463,-0.464 -0.256,0 -0.463,0.208 -0.463,0.464 0,0.255 0.207,0.464 0.463,0.464 0.257,0 0.463,-0.208 0.463,-0.464"
   inkscape:connector-curvature="0"
   style="fill:#354b59;fill-opacity:1" />
	<path
   id="path43"
   d="m 138.715,48.271 h -1.972 c -0.14,0 -0.253,-0.112 -0.253,-0.253 0,-0.139 0.113,-0.253 0.253,-0.253 h 1.972 c 0.14,0 0.253,0.114 0.253,0.253 0,0.141 -0.114,0.253 -0.253,0.253"
   inkscape:connector-curvature="0"
   style="fill:#354b59;fill-opacity:1" />
	<path
   id="path45"
   d="m 138.715,49.205 h -1.972 c -0.14,0 -0.253,-0.113 -0.253,-0.253 0,-0.14 0.113,-0.254 0.253,-0.254 h 1.972 c 0.14,0 0.253,0.114 0.253,0.254 0,0.14 -0.114,0.253 -0.253,0.253"
   inkscape:connector-curvature="0"
   style="fill:#354b59;fill-opacity:1" />
	<path
   id="path47"
   d="m 138.715,50.137 h -1.972 c -0.14,0 -0.253,-0.112 -0.253,-0.252 0,-0.14 0.113,-0.254 0.253,-0.254 h 1.972 c 0.14,0 0.253,0.114 0.253,0.254 0,0.14 -0.114,0.252 -0.253,0.252"
   inkscape:connector-curvature="0"
   style="fill:#354b59;fill-opacity:1" />
	<path
   id="path49"
   d="m 138.715,51.07 h -1.972 c -0.14,0 -0.253,-0.113 -0.253,-0.253 0,-0.139 0.113,-0.253 0.253,-0.253 h 1.972 c 0.14,0 0.253,0.114 0.253,0.253 0,0.14 -0.114,0.253 -0.253,0.253"
   inkscape:connector-curvature="0"
   style="fill:#354b59;fill-opacity:1" />
	<path
   id="path51"
   d="m 138.715,52.003 h -1.972 c -0.14,0 -0.253,-0.112 -0.253,-0.252 0,-0.141 0.113,-0.254 0.253,-0.254 h 1.972 c 0.14,0 0.253,0.113 0.253,0.254 0,0.14 -0.114,0.252 -0.253,0.252"
   inkscape:connector-curvature="0"
   style="fill:#354b59;fill-opacity:1" />
	<path
   id="path53"
   d="m 138.715,52.936 h -1.972 c -0.14,0 -0.253,-0.111 -0.253,-0.252 0,-0.14 0.113,-0.254 0.253,-0.254 h 1.972 c 0.14,0 0.253,0.114 0.253,0.254 0,0.14 -0.114,0.252 -0.253,0.252"
   inkscape:connector-curvature="0"
   style="fill:#354b59;fill-opacity:1" />
	<path
   id="path55"
   d="m 138.715,53.869 h -1.972 c -0.14,0 -0.253,-0.113 -0.253,-0.253 0,-0.14 0.113,-0.253 0.253,-0.253 h 1.972 c 0.14,0 0.253,0.113 0.253,0.253 0,0.14 -0.114,0.253 -0.253,0.253"
   inkscape:connector-curvature="0"
   style="fill:#354b59;fill-opacity:1" />
	<path
   id="path57"
   d="m 138.715,54.802 h -1.972 c -0.14,0 -0.253,-0.112 -0.253,-0.253 0,-0.14 0.113,-0.253 0.253,-0.253 h 1.972 c 0.14,0 0.253,0.113 0.253,0.253 0,0.14 -0.114,0.253 -0.253,0.253"
   inkscape:connector-curvature="0"
   style="fill:#354b59;fill-opacity:1" />
	<path
   id="path59"
   d="m 138.715,55.735 h -1.972 c -0.14,0 -0.253,-0.113 -0.253,-0.253 0,-0.14 0.113,-0.254 0.253,-0.254 h 1.972 c 0.14,0 0.253,0.114 0.253,0.254 0,0.14 -0.114,0.253 -0.253,0.253"
   inkscape:connector-curvature="0"
   style="fill:#354b59;fill-opacity:1" />
	<path
   id="path61"
   d="m 138.715,56.667 h -1.972 c -0.14,0 -0.253,-0.112 -0.253,-0.251 0,-0.141 0.113,-0.254 0.253,-0.254 h 1.972 c 0.14,0 0.253,0.113 0.253,0.254 0,0.139 -0.114,0.251 -0.253,0.251"
   inkscape:connector-curvature="0"
   style="fill:#354b59;fill-opacity:1" />
	<path
   id="path63"
   d="m 138.715,57.601 h -1.972 c -0.14,0 -0.253,-0.113 -0.253,-0.253 0,-0.139 0.113,-0.254 0.253,-0.254 h 1.972 c 0.14,0 0.253,0.115 0.253,0.254 0,0.139 -0.114,0.253 -0.253,0.253"
   inkscape:connector-curvature="0"
   style="fill:#354b59;fill-opacity:1" />
	<path
   id="path65"
   d="m 138.715,58.534 h -1.972 c -0.14,0 -0.253,-0.113 -0.253,-0.253 0,-0.14 0.113,-0.254 0.253,-0.254 h 1.972 c 0.14,0 0.253,0.114 0.253,0.254 0,0.14 -0.114,0.253 -0.253,0.253"
   inkscape:connector-curvature="0"
   style="fill:#354b59;fill-opacity:1" />
	<path
   id="path67"
   d="m 138.715,59.466 h -1.972 c -0.14,0 -0.253,-0.113 -0.253,-0.252 0,-0.14 0.113,-0.254 0.253,-0.254 h 1.972 c 0.14,0 0.253,0.114 0.253,0.254 0,0.139 -0.114,0.252 -0.253,0.252"
   inkscape:connector-curvature="0"
   style="fill:#354b59;fill-opacity:1" />
	<path
   id="path69"
   d="m 138.715,60.399 h -1.972 c -0.14,0 -0.253,-0.113 -0.253,-0.253 0,-0.139 0.113,-0.253 0.253,-0.253 h 1.972 c 0.14,0 0.253,0.114 0.253,0.253 0,0.14 -0.114,0.253 -0.253,0.253"
   inkscape:connector-curvature="0"
   style="fill:#354b59;fill-opacity:1" />
	<path
   id="path71"
   d="m 138.715,61.332 h -1.972 c -0.14,0 -0.253,-0.112 -0.253,-0.253 0,-0.14 0.113,-0.254 0.253,-0.254 h 1.972 c 0.14,0 0.253,0.114 0.253,0.254 0,0.141 -0.114,0.253 -0.253,0.253"
   inkscape:connector-curvature="0"
   style="fill:#354b59;fill-opacity:1" />
	<path
   id="path73"
   d="m 130.534,3.57 h -1.33 c -0.14,0 -0.254,-0.112 -0.254,-0.252 0,-0.139 0.114,-0.253 0.254,-0.253 h 1.33 c 0.139,0 0.252,0.114 0.252,0.253 0,0.14 -0.113,0.252 -0.252,0.252"
   inkscape:connector-curvature="0"
   style="fill:#354b59;fill-opacity:1" />
	<path
   id="path75"
   d="m 130.534,4.503 h -1.33 c -0.14,0 -0.254,-0.113 -0.254,-0.253 0,-0.139 0.114,-0.253 0.254,-0.253 h 1.33 c 0.139,0 0.252,0.114 0.252,0.253 0,0.141 -0.113,0.253 -0.252,0.253"
   inkscape:connector-curvature="0"
   style="fill:#354b59;fill-opacity:1" />
	<path
   id="path77"
   d="m 130.534,5.436 h -1.33 c -0.14,0 -0.254,-0.113 -0.254,-0.252 0,-0.14 0.114,-0.254 0.254,-0.254 h 1.33 c 0.139,0 0.252,0.114 0.252,0.254 0,0.139 -0.113,0.252 -0.252,0.252"
   inkscape:connector-curvature="0"
   style="fill:#354b59;fill-opacity:1" />
	<path
   id="path79"
   d="m 130.534,6.37 h -1.33 c -0.14,0 -0.254,-0.113 -0.254,-0.253 0,-0.14 0.114,-0.253 0.254,-0.253 h 1.33 c 0.139,0 0.252,0.114 0.252,0.253 0,0.139 -0.113,0.253 -0.252,0.253"
   inkscape:connector-curvature="0"
   style="fill:#354b59;fill-opacity:1" />
	<path
   id="path81"
   d="m 130.534,7.302 h -1.33 c -0.14,0 -0.254,-0.113 -0.254,-0.252 0,-0.14 0.114,-0.254 0.254,-0.254 h 1.33 c 0.139,0 0.252,0.114 0.252,0.254 0,0.139 -0.113,0.252 -0.252,0.252"
   inkscape:connector-curvature="0"
   style="fill:#354b59;fill-opacity:1" />
	<path
   id="path83"
   d="m 130.534,8.235 h -1.33 c -0.14,0 -0.254,-0.113 -0.254,-0.252 0,-0.139 0.114,-0.253 0.254,-0.253 h 1.33 c 0.139,0 0.252,0.114 0.252,0.253 0,0.139 -0.113,0.252 -0.252,0.252"
   inkscape:connector-curvature="0"
   style="fill:#354b59;fill-opacity:1" />
	<path
   id="path85"
   d="m 130.534,9.168 h -1.33 c -0.14,0 -0.254,-0.113 -0.254,-0.253 0,-0.139 0.114,-0.253 0.254,-0.253 h 1.33 c 0.139,0 0.252,0.114 0.252,0.253 0,0.14 -0.113,0.253 -0.252,0.253"
   inkscape:connector-curvature="0"
   style="fill:#354b59;fill-opacity:1" />
	<path
   id="path87"
   d="m 130.534,10.101 h -1.33 c -0.14,0 -0.254,-0.113 -0.254,-0.252 0,-0.14 0.114,-0.254 0.254,-0.254 h 1.33 c 0.139,0 0.252,0.114 0.252,0.254 0,0.139 -0.113,0.252 -0.252,0.252"
   inkscape:connector-curvature="0"
   style="fill:#354b59;fill-opacity:1" />
	<path
   id="path89"
   d="m 130.534,11.034 h -1.33 c -0.14,0 -0.254,-0.113 -0.254,-0.252 0,-0.14 0.114,-0.253 0.254,-0.253 h 1.33 c 0.139,0 0.252,0.114 0.252,0.253 0,0.138 -0.113,0.252 -0.252,0.252"
   inkscape:connector-curvature="0"
   style="fill:#354b59;fill-opacity:1" />
	<path
   id="path91"
   d="m 130.534,11.967 h -1.33 c -0.14,0 -0.254,-0.113 -0.254,-0.253 0,-0.14 0.114,-0.253 0.254,-0.253 h 1.33 c 0.139,0 0.252,0.114 0.252,0.253 0,0.139 -0.113,0.253 -0.252,0.253"
   inkscape:connector-curvature="0"
   style="fill:#354b59;fill-opacity:1" />
	<path
   id="path93"
   d="m 132.808,3.57 h -1.33 c -0.14,0 -0.254,-0.112 -0.254,-0.252 0,-0.139 0.114,-0.253 0.254,-0.253 h 1.33 c 0.141,0 0.253,0.114 0.253,0.253 0,0.14 -0.113,0.252 -0.253,0.252"
   inkscape:connector-curvature="0"
   style="fill:#354b59;fill-opacity:1" />
	<path
   id="path95"
   d="m 132.808,4.503 h -1.33 c -0.14,0 -0.254,-0.113 -0.254,-0.253 0,-0.139 0.114,-0.253 0.254,-0.253 h 1.33 c 0.141,0 0.253,0.114 0.253,0.253 0,0.141 -0.113,0.253 -0.253,0.253"
   inkscape:connector-curvature="0"
   style="fill:#354b59;fill-opacity:1" />
	<path
   id="path97"
   d="m 132.808,5.436 h -1.33 c -0.14,0 -0.254,-0.113 -0.254,-0.252 0,-0.14 0.114,-0.254 0.254,-0.254 h 1.33 c 0.141,0 0.253,0.114 0.253,0.254 0,0.139 -0.113,0.252 -0.253,0.252"
   inkscape:connector-curvature="0"
   style="fill:#354b59;fill-opacity:1" />
	<path
   id="path99"
   d="m 132.808,6.37 h -1.33 c -0.14,0 -0.254,-0.113 -0.254,-0.253 0,-0.14 0.114,-0.253 0.254,-0.253 h 1.33 c 0.141,0 0.253,0.114 0.253,0.253 0,0.139 -0.113,0.253 -0.253,0.253"
   inkscape:connector-curvature="0"
   style="fill:#354b59;fill-opacity:1" />
	<path
   id="path101"
   d="m 132.808,7.302 h -1.33 c -0.14,0 -0.254,-0.113 -0.254,-0.252 0,-0.14 0.114,-0.254 0.254,-0.254 h 1.33 c 0.141,0 0.253,0.114 0.253,0.254 0,0.139 -0.113,0.252 -0.253,0.252"
   inkscape:connector-curvature="0"
   style="fill:#354b59;fill-opacity:1" />
	<path
   id="path103"
   d="m 132.808,8.235 h -1.33 c -0.14,0 -0.254,-0.113 -0.254,-0.252 0,-0.139 0.114,-0.253 0.254,-0.253 h 1.33 c 0.141,0 0.253,0.114 0.253,0.253 0,0.139 -0.113,0.252 -0.253,0.252"
   inkscape:connector-curvature="0"
   style="fill:#354b59;fill-opacity:1" />
	<path
   id="path105"
   d="m 132.808,9.168 h -1.33 c -0.14,0 -0.254,-0.113 -0.254,-0.253 0,-0.139 0.114,-0.253 0.254,-0.253 h 1.33 c 0.141,0 0.253,0.114 0.253,0.253 0,0.14 -0.113,0.253 -0.253,0.253"
   inkscape:connector-curvature="0"
   style="fill:#354b59;fill-opacity:1" />
	<path
   id="path107"
   d="m 132.808,10.101 h -1.33 c -0.14,0 -0.254,-0.113 -0.254,-0.252 0,-0.14 0.114,-0.254 0.254,-0.254 h 1.33 c 0.141,0 0.253,0.114 0.253,0.254 0,0.139 -0.113,0.252 -0.253,0.252"
   inkscape:connector-curvature="0"
   style="fill:#354b59;fill-opacity:1" />
	<path
   id="path109"
   d="m 132.808,11.034 h -1.33 c -0.14,0 -0.254,-0.113 -0.254,-0.252 0,-0.14 0.114,-0.253 0.254,-0.253 h 1.33 c 0.141,0 0.253,0.114 0.253,0.253 0,0.138 -0.113,0.252 -0.253,0.252"
   inkscape:connector-curvature="0"
   style="fill:#354b59;fill-opacity:1" />
	<path
   id="path111"
   d="m 132.808,11.967 h -1.33 c -0.14,0 -0.254,-0.113 -0.254,-0.253 0,-0.14 0.114,-0.253 0.254,-0.253 h 1.33 c 0.141,0 0.253,0.114 0.253,0.253 0,0.139 -0.113,0.253 -0.253,0.253"
   inkscape:connector-curvature="0"
   style="fill:#354b59;fill-opacity:1" />
	<path
   id="path113"
   d="m 138.715,62.265 h -1.972 c -0.14,0 -0.253,-0.113 -0.253,-0.252 0,-0.14 0.113,-0.254 0.253,-0.254 h 1.972 c 0.14,0 0.253,0.114 0.253,0.254 0,0.138 -0.114,0.252 -0.253,0.252"
   inkscape:connector-curvature="0"
   style="fill:#354b59;fill-opacity:1" />
	<path
   id="path115"
   d="m 138.715,63.197 h -1.972 c -0.14,0 -0.253,-0.112 -0.253,-0.252 0,-0.14 0.113,-0.253 0.253,-0.253 h 1.972 c 0.14,0 0.253,0.113 0.253,0.253 0,0.14 -0.114,0.252 -0.253,0.252"
   inkscape:connector-curvature="0"
   style="fill:#354b59;fill-opacity:1" />
	<path
   id="path117"
   d="m 138.715,64.131 h -1.972 c -0.14,0 -0.253,-0.112 -0.253,-0.253 0,-0.14 0.113,-0.254 0.253,-0.254 h 1.972 c 0.14,0 0.253,0.114 0.253,0.254 0,0.141 -0.114,0.253 -0.253,0.253"
   inkscape:connector-curvature="0"
   style="fill:#354b59;fill-opacity:1" />
	<path
   id="path119"
   d="m 138.715,65.063 h -1.972 c -0.14,0 -0.253,-0.113 -0.253,-0.252 0,-0.141 0.113,-0.254 0.253,-0.254 h 1.972 c 0.14,0 0.253,0.113 0.253,0.254 0,0.139 -0.114,0.252 -0.253,0.252"
   inkscape:connector-curvature="0"
   style="fill:#354b59;fill-opacity:1" />
	<path
   id="path121"
   d="m 138.715,65.996 h -1.972 c -0.14,0 -0.253,-0.112 -0.253,-0.253 0,-0.139 0.113,-0.252 0.253,-0.252 h 1.972 c 0.14,0 0.253,0.113 0.253,0.252 0,0.141 -0.114,0.253 -0.253,0.253"
   inkscape:connector-curvature="0"
   style="fill:#354b59;fill-opacity:1" />
	<path
   id="path123"
   d="m 138.715,66.93 h -1.972 c -0.14,0 -0.253,-0.113 -0.253,-0.253 0,-0.14 0.113,-0.254 0.253,-0.254 h 1.972 c 0.14,0 0.253,0.114 0.253,0.254 0,0.14 -0.114,0.253 -0.253,0.253"
   inkscape:connector-curvature="0"
   style="fill:#354b59;fill-opacity:1" />
	<path
   id="path125"
   d="m 138.715,67.862 h -1.972 c -0.14,0 -0.253,-0.113 -0.253,-0.252 0,-0.141 0.113,-0.254 0.253,-0.254 h 1.972 c 0.14,0 0.253,0.113 0.253,0.254 0,0.139 -0.114,0.252 -0.253,0.252"
   inkscape:connector-curvature="0"
   style="fill:#354b59;fill-opacity:1" />
	<path
   id="path127"
   d="m 141.528,48.271 h -1.973 c -0.139,0 -0.252,-0.112 -0.252,-0.253 0,-0.139 0.113,-0.253 0.252,-0.253 h 1.973 c 0.14,0 0.252,0.114 0.252,0.253 0,0.141 -0.112,0.253 -0.252,0.253"
   inkscape:connector-curvature="0"
   style="fill:#354b59;fill-opacity:1" />
	<path
   id="path129"
   d="m 141.528,49.205 h -1.973 c -0.139,0 -0.252,-0.113 -0.252,-0.253 0,-0.14 0.113,-0.254 0.252,-0.254 h 1.973 c 0.14,0 0.252,0.114 0.252,0.254 0,0.14 -0.112,0.253 -0.252,0.253"
   inkscape:connector-curvature="0"
   style="fill:#354b59;fill-opacity:1" />
	<path
   id="path131"
   d="m 141.528,50.137 h -1.973 c -0.139,0 -0.252,-0.112 -0.252,-0.252 0,-0.14 0.113,-0.254 0.252,-0.254 h 1.973 c 0.14,0 0.252,0.114 0.252,0.254 0,0.14 -0.112,0.252 -0.252,0.252"
   inkscape:connector-curvature="0"
   style="fill:#354b59;fill-opacity:1" />
	<path
   id="path133"
   d="m 141.528,51.07 h -1.973 c -0.139,0 -0.252,-0.113 -0.252,-0.253 0,-0.139 0.113,-0.253 0.252,-0.253 h 1.973 c 0.14,0 0.252,0.114 0.252,0.253 0,0.14 -0.112,0.253 -0.252,0.253"
   inkscape:connector-curvature="0"
   style="fill:#354b59;fill-opacity:1" />
	<path
   id="path135"
   d="m 141.528,52.003 h -1.973 c -0.139,0 -0.252,-0.112 -0.252,-0.252 0,-0.141 0.113,-0.254 0.252,-0.254 h 1.973 c 0.14,0 0.252,0.113 0.252,0.254 0,0.14 -0.112,0.252 -0.252,0.252"
   inkscape:connector-curvature="0"
   style="fill:#354b59;fill-opacity:1" />
	<path
   id="path137"
   d="m 141.528,52.936 h -1.973 c -0.139,0 -0.252,-0.111 -0.252,-0.252 0,-0.14 0.113,-0.254 0.252,-0.254 h 1.973 c 0.14,0 0.252,0.114 0.252,0.254 0,0.14 -0.112,0.252 -0.252,0.252"
   inkscape:connector-curvature="0"
   style="fill:#354b59;fill-opacity:1" />
	<path
   id="path139"
   d="m 141.528,53.869 h -1.973 c -0.139,0 -0.252,-0.113 -0.252,-0.253 0,-0.14 0.113,-0.253 0.252,-0.253 h 1.973 c 0.14,0 0.252,0.113 0.252,0.253 0,0.14 -0.112,0.253 -0.252,0.253"
   inkscape:connector-curvature="0"
   style="fill:#354b59;fill-opacity:1" />
	<path
   id="path141"
   d="m 141.528,54.802 h -1.973 c -0.139,0 -0.252,-0.112 -0.252,-0.253 0,-0.14 0.113,-0.253 0.252,-0.253 h 1.973 c 0.14,0 0.252,0.113 0.252,0.253 0,0.14 -0.112,0.253 -0.252,0.253"
   inkscape:connector-curvature="0"
   style="fill:#354b59;fill-opacity:1" />
	<path
   id="path143"
   d="m 141.528,55.735 h -1.973 c -0.139,0 -0.252,-0.113 -0.252,-0.253 0,-0.14 0.113,-0.254 0.252,-0.254 h 1.973 c 0.14,0 0.252,0.114 0.252,0.254 0,0.14 -0.112,0.253 -0.252,0.253"
   inkscape:connector-curvature="0"
   style="fill:#354b59;fill-opacity:1" />
	<path
   id="path145"
   d="m 141.528,56.667 h -1.973 c -0.139,0 -0.252,-0.112 -0.252,-0.251 0,-0.141 0.113,-0.254 0.252,-0.254 h 1.973 c 0.14,0 0.252,0.113 0.252,0.254 0,0.139 -0.112,0.251 -0.252,0.251"
   inkscape:connector-curvature="0"
   style="fill:#354b59;fill-opacity:1" />
	<path
   id="path147"
   d="m 141.528,57.601 h -1.973 c -0.139,0 -0.252,-0.113 -0.252,-0.253 0,-0.139 0.113,-0.254 0.252,-0.254 h 1.973 c 0.14,0 0.252,0.115 0.252,0.254 0,0.139 -0.112,0.253 -0.252,0.253"
   inkscape:connector-curvature="0"
   style="fill:#354b59;fill-opacity:1" />
	<path
   id="path149"
   d="m 141.528,58.534 h -1.973 c -0.139,0 -0.252,-0.113 -0.252,-0.253 0,-0.14 0.113,-0.254 0.252,-0.254 h 1.973 c 0.14,0 0.252,0.114 0.252,0.254 0,0.14 -0.112,0.253 -0.252,0.253"
   inkscape:connector-curvature="0"
   style="fill:#354b59;fill-opacity:1" />
	<path
   id="path151"
   d="m 141.528,59.466 h -1.973 c -0.139,0 -0.252,-0.113 -0.252,-0.252 0,-0.14 0.113,-0.254 0.252,-0.254 h 1.973 c 0.14,0 0.252,0.114 0.252,0.254 0,0.139 -0.112,0.252 -0.252,0.252"
   inkscape:connector-curvature="0"
   style="fill:#354b59;fill-opacity:1" />
	<path
   id="path153"
   d="m 141.528,60.399 h -1.973 c -0.139,0 -0.252,-0.113 -0.252,-0.253 0,-0.139 0.113,-0.253 0.252,-0.253 h 1.973 c 0.14,0 0.252,0.114 0.252,0.253 0,0.14 -0.112,0.253 -0.252,0.253"
   inkscape:connector-curvature="0"
   style="fill:#354b59;fill-opacity:1" />
	<path
   id="path155"
   d="m 141.528,61.332 h -1.973 c -0.139,0 -0.252,-0.112 -0.252,-0.253 0,-0.14 0.113,-0.254 0.252,-0.254 h 1.973 c 0.14,0 0.252,0.114 0.252,0.254 0,0.141 -0.112,0.253 -0.252,0.253"
   inkscape:connector-curvature="0"
   style="fill:#354b59;fill-opacity:1" />
	<path
   id="path157"
   d="m 141.528,62.265 h -1.973 c -0.139,0 -0.252,-0.113 -0.252,-0.252 0,-0.14 0.113,-0.254 0.252,-0.254 h 1.973 c 0.14,0 0.252,0.114 0.252,0.254 0,0.138 -0.112,0.252 -0.252,0.252"
   inkscape:connector-curvature="0"
   style="fill:#354b59;fill-opacity:1" />
	<path
   id="path159"
   d="m 141.528,63.197 h -1.973 c -0.139,0 -0.252,-0.112 -0.252,-0.252 0,-0.14 0.113,-0.253 0.252,-0.253 h 1.973 c 0.14,0 0.252,0.113 0.252,0.253 0,0.14 -0.112,0.252 -0.252,0.252"
   inkscape:connector-curvature="0"
   style="fill:#354b59;fill-opacity:1" />
	<path
   id="path161"
   d="m 141.528,64.131 h -1.973 c -0.139,0 -0.252,-0.112 -0.252,-0.253 0,-0.14 0.113,-0.254 0.252,-0.254 h 1.973 c 0.14,0 0.252,0.114 0.252,0.254 0,0.141 -0.112,0.253 -0.252,0.253"
   inkscape:connector-curvature="0"
   style="fill:#354b59;fill-opacity:1" />
	<path
   id="path163"
   d="m 141.528,65.063 h -1.973 c -0.139,0 -0.252,-0.113 -0.252,-0.252 0,-0.141 0.113,-0.254 0.252,-0.254 h 1.973 c 0.14,0 0.252,0.113 0.252,0.254 0,0.139 -0.112,0.252 -0.252,0.252"
   inkscape:connector-curvature="0"
   style="fill:#354b59;fill-opacity:1" />
	<path
   id="path165"
   d="m 141.528,65.996 h -1.973 c -0.139,0 -0.252,-0.112 -0.252,-0.253 0,-0.139 0.113,-0.252 0.252,-0.252 h 1.973 c 0.14,0 0.252,0.113 0.252,0.252 0,0.141 -0.112,0.253 -0.252,0.253"
   inkscape:connector-curvature="0"
   style="fill:#354b59;fill-opacity:1" />
	<path
   id="path167"
   d="m 141.528,66.93 h -1.973 c -0.139,0 -0.252,-0.113 -0.252,-0.253 0,-0.14 0.113,-0.254 0.252,-0.254 h 1.973 c 0.14,0 0.252,0.114 0.252,0.254 0,0.14 -0.112,0.253 -0.252,0.253"
   inkscape:connector-curvature="0"
   style="fill:#354b59;fill-opacity:1" />
	<path
   id="path169"
   d="m 141.528,67.862 h -1.973 c -0.139,0 -0.252,-0.113 -0.252,-0.252 0,-0.141 0.113,-0.254 0.252,-0.254 h 1.973 c 0.14,0 0.252,0.113 0.252,0.254 0,0.139 -0.112,0.252 -0.252,0.252"
   inkscape:connector-curvature="0"
   style="fill:#354b59;fill-opacity:1" />
</g><polygon
     id="polygon171"
     points="120.919,0 120.919,1.321 119.041,1.321 119.041,88.413 119.041,91.925 106.985,91.925 106.985,83.609 116.648,83.609 116.648,76.418 105.523,76.418 105.523,59.215 116.536,59.215 116.536,27.894 105.636,27.894 105.636,9.848 116.536,9.848 116.536,6.116 22.812,6.116 22.812,76.643 20.79,76.643 20.79,91.925 18.205,91.925 18.205,63.878 20.004,63.878 20.004,0 "
     style="fill:#6b97b3;fill-opacity:1" /><rect
     id="rect173"
     height="8.2030001"
     width="13.486"
     y="83.722"
     x="81.024002"
     style="fill:#6b97b3;fill-opacity:1" /><rect
     id="rect175"
     height="8.2030001"
     width="13.485"
     y="83.722"
     x="56.750999"
     style="fill:#6b97b3;fill-opacity:1" /><rect
     id="rect177"
     height="8.2030001"
     width="13.486"
     y="83.722"
     x="32.046001"
     style="fill:#6b97b3;fill-opacity:1" /><path
     id="path179"
     d="m 22.981,26.129 h 79.228 V 9.496 H 92.655 V 6.285 H 43.884 V 9.496 H 22.981 v 16.633 z m 79.565,0.337 H 22.644 V 9.159 H 43.547 V 5.947 h 49.446 v 3.212 h 9.553 v 17.307 z"
     inkscape:connector-curvature="0"
     style="fill:#6b97b3;fill-opacity:1" /><rect
     id="rect181"
     height="20.181"
     width="0.338"
     y="6.1160002"
     x="80.293999"
     style="fill:#6b97b3;fill-opacity:1" /><rect
     id="rect183"
     height="20.181"
     width="0.336"
     y="6.1160002"
     x="56.133999"
     style="fill:#6b97b3;fill-opacity:1" /><rect
     id="rect185"
     height="16.969"
     width="0.336"
     y="9.3280001"
     x="43.528"
     style="fill:#6b97b3;fill-opacity:1" /><path
     id="path187"
     d="m 31.747,74.901 h 73.607 V 59.045 h 2.36 V 36.443 H 31.747 v 38.458 z m 73.944,0.337 H 31.411 V 36.106 h 76.641 v 23.277 h -2.36 v 15.855 z"
     inkscape:connector-curvature="0"
     style="fill:#6b97b3;fill-opacity:1" /><rect
     id="rect189"
     height="0.33700001"
     width="76.306"
     y="55.313"
     x="31.577999"
     style="fill:#6b97b3;fill-opacity:1" /><rect
     id="rect191"
     height="19.587"
     width="0.338"
     y="55.481998"
     x="92.992996"
     style="fill:#6b97b3;fill-opacity:1" /><rect
     id="rect193"
     height="38.793999"
     width="0.338"
     y="36.275002"
     x="80.293999"
     style="fill:#6b97b3;fill-opacity:1" /><rect
     id="rect195"
     height="19.587"
     width="0.33700001"
     y="55.481998"
     x="68.044998"
     style="fill:#6b97b3;fill-opacity:1" /><rect
     id="rect197"
     height="19.208"
     width="0.336"
     y="36.275002"
     x="56.133999"
     style="fill:#6b97b3;fill-opacity:1" /><g
     id="g199"
     style="fill:#6b97b3;fill-opacity:1">
	<path
   id="path201"
   d="m 114.401,42.48 c 0,-0.994 -0.805,-1.799 -1.798,-1.799 -0.993,0 -1.798,0.806 -1.798,1.799 0,0.992 0.805,1.798 1.798,1.798 0.993,0 1.798,-0.805 1.798,-1.798"
   inkscape:connector-curvature="0"
   style="fill:#6b97b3;fill-opacity:1" />
	<path
   id="path203"
   d="m 111.783,45.963 c 0,-0.931 -0.755,-1.686 -1.686,-1.686 -0.931,0 -1.686,0.755 -1.686,1.686 0,0.932 0.755,1.685 1.686,1.685 0.931,0 1.686,-0.753 1.686,-1.685"
   inkscape:connector-curvature="0"
   style="fill:#6b97b3;fill-opacity:1" />
</g><rect
     id="rect205"
     height="3.7320001"
     width="5.9559999"
     y="48.951"
     x="109.008"
     style="fill:#6b97b3;fill-opacity:1" /><rect
     id="rect207"
     height="7.1919999"
     width="7.1919999"
     y="38.882999"
     x="123.312"
     style="fill:#6b97b3;fill-opacity:1" /><rect
     id="rect209"
     height="7.0669999"
     width="7.066"
     y="47.284"
     x="123.375"
     style="fill:#6b97b3;fill-opacity:1" /><rect
     id="rect211"
     height="7.066"
     width="7.066"
     y="55.681"
     x="123.375"
     style="fill:#6b97b3;fill-opacity:1" /><rect
     id="rect213"
     height="7.066"
     width="7.066"
     y="64.075996"
     x="123.375"
     style="fill:#6b97b3;fill-opacity:1" /><rect
     id="rect215"
     height="11.237"
     width="6.1799998"
     y="73.440002"
     x="135.755"
     style="fill:#6b97b3;fill-opacity:1" /><rect
     id="rect217"
     height="6.448"
     width="6.4499998"
     y="80.575996"
     x="125.571"
     style="fill:#6b97b3;fill-opacity:1" /><g
     id="g219"
     style="fill:#6b97b3;fill-opacity:1">
	<path
   id="path221"
   d="m 139.178,24.162 c 0,-0.9 -0.729,-1.629 -1.629,-1.629 -0.9,0 -1.63,0.729 -1.63,1.629 0,0.901 0.73,1.629 1.63,1.629 0.9,0 1.629,-0.729 1.629,-1.629"
   inkscape:connector-curvature="0"
   style="fill:#6b97b3;fill-opacity:1" />
</g><rect
     id="rect223"
     height="10.844"
     width="4.4390001"
     y="26.747"
     x="135.58501"
     style="fill:#6b97b3;fill-opacity:1" /><g
     id="g225"
     style="fill:#6b97b3;fill-opacity:1">
	<path
   id="path227"
   d="m 126.333,14.287 c 0,-0.988 -0.802,-1.79 -1.79,-1.79 -0.987,0 -1.788,0.802 -1.788,1.79 0,0.987 0.801,1.789 1.788,1.789 0.988,0 1.79,-0.802 1.79,-1.789"
   inkscape:connector-curvature="0"
   style="fill:#6b97b3;fill-opacity:1" />
	<path
   id="path229"
   d="m 131.328,13.907 c 0,-0.536 -0.435,-0.969 -0.969,-0.969 -0.536,0 -0.97,0.433 -0.97,0.969 0,0.535 0.434,0.969 0.97,0.969 0.535,0 0.969,-0.434 0.969,-0.969"
   inkscape:connector-curvature="0"
   style="fill:#6b97b3;fill-opacity:1" />
	<path
   id="path231"
   d="m 132.572,18.761 c -0.357,-0.885 -1.996,-1.059 -3.66,-0.387 -1.665,0.671 -2.724,1.933 -2.367,2.817 0.356,0.885 1.996,1.059 3.66,0.387 1.663,-0.671 2.724,-1.932 2.367,-2.817"
   inkscape:connector-curvature="0"
   style="fill:#6b97b3;fill-opacity:1" />
</g><polygon
     id="polygon233"
     points="119.042,17.194 123.312,18.459 123.312,26.296 119.042,28.151 "
     style="fill:#6b97b3;fill-opacity:1" /></g>
</svg>