<?xml version="1.0" encoding="UTF-8" standalone="no"?>
<!-- Generator: Adobe Illustrator 16.0.0, SVG Export Plug-In . SVG Version: 6.00 Build 0)  -->

<svg
   xmlns:dc="http://purl.org/dc/elements/1.1/"
   xmlns:cc="http://creativecommons.org/ns#"
   xmlns:rdf="http://www.w3.org/1999/02/22-rdf-syntax-ns#"
   xmlns:svg="http://www.w3.org/2000/svg"
   xmlns="http://www.w3.org/2000/svg"
   xmlns:sodipodi="http://sodipodi.sourceforge.net/DTD/sodipodi-0.dtd"
   xmlns:inkscape="http://www.inkscape.org/namespaces/inkscape"
   version="1.1"
   id="Layer_1"
   x="0px"
   y="0px"
   width="157.04773"
   height="160.2403"
   viewBox="0 0 157.04773 160.2403"
   enable-background="new 0 0 148.129 96.645"
   xml:space="preserve"
   inkscape:version="0.48.2 r9819"
   sodipodi:docname="floor2-v2.svg"><metadata
   id="metadata209"><rdf:RDF><cc:Work
       rdf:about=""><dc:format>image/svg+xml</dc:format><dc:type
         rdf:resource="http://purl.org/dc/dcmitype/StillImage" /></cc:Work></rdf:RDF></metadata><defs
   id="defs207" /><sodipodi:namedview
   pagecolor="#ffffff"
   bordercolor="#666666"
   borderopacity="1"
   objecttolerance="10"
   gridtolerance="10"
   guidetolerance="10"
   inkscape:pageopacity="0"
   inkscape:pageshadow="2"
   inkscape:window-width="1374"
   inkscape:window-height="1146"
   id="namedview205"
   showgrid="false"
   fit-margin-top="0"
   fit-margin-left="0"
   fit-margin-right="0"
   fit-margin-bottom="0"
   inkscape:zoom="3.3606059"
   inkscape:cx="98.90256"
   inkscape:cy="99.312093"
   inkscape:window-x="1188"
   inkscape:window-y="0"
   inkscape:window-maximized="0"
   inkscape:current-layer="g3186" />














<g
   id="g3186"
   transform="matrix(0.70710678,-0.70710678,0.70710678,0.70710678,-8.3438615,95.240919)"><g
     id="g3">
	<path
   id="path5"
   d="m 11.8,0 h 109.12 v 1.32 h 14.834 c 0,0 11.463,53.183 12.361,81.277 0,0 0.448,4.832 -3.822,6.068 l -26.071,7.191 v -3.933 h -11.237 l -13.71,4.72 v -4.72 h -10.9 l -13.822,4.72 v -4.72 h -10.9 l -13.599,4.72 v -4.72 H 33.151 l -14.047,4.72 v -4.72 H 0 V 22.026 H 11.8 V 0 z"
   inkscape:connector-curvature="0"
   style="fill:#354b59;fill-opacity:1" />
	<path
   id="path7"
   d="M 20.004,0 H 120.92 v 1.32 h 14.834 c 0,0 11.463,53.183 12.361,81.277 0,0 0.449,4.832 -3.821,6.068 l -26.071,7.191 v -3.933 h -11.238 l -13.71,4.72 v -4.72 h -10.9 l -13.822,4.72 v -4.72 h -10.9 l -13.599,4.72 v -4.72 H 33.151 l -14.047,4.72 -0.899,-4.72 V 63.877 h 1.799 V 0 z"
   inkscape:connector-curvature="0"
   style="fill:#84bbdd;fill-opacity:1" />
	<path
   id="path9"
   d="m 119.042,1.32 h 16.711 c 0,0 11.462,53.184 12.361,81.276 0,0 0.45,4.832 -3.82,6.069 l -26.072,7.192 v -3.934 h 0.82 V 1.32 z"
   inkscape:connector-curvature="0"
   style="fill:#6b97b3;fill-opacity:1" />
</g><polygon
     id="polygon11"
     points="145.002,88.413 119.042,88.413 119.042,1.32 135.753,1.32 137.697,10.311 145.002,10.311 "
     style="fill:#84bbdd;fill-opacity:1" /><rect
     id="rect13"
     height="6.7420001"
     width="5.1700001"
     y="4.579"
     x="121.738"
     style="fill:#6b97b3;fill-opacity:1" /><rect
     id="rect15"
     height="9.9829998"
     width="5.0560002"
     y="2.513"
     x="128.481"
     style="fill:#6b97b3;fill-opacity:1" /><rect
     id="rect17"
     height="21.169001"
     width="6.2940001"
     y="47.284"
     x="136.011"
     style="fill:#6b97b3;fill-opacity:1" /><g
     id="g19"
     style="fill:#354b59;fill-opacity:1">
	<path
   id="path21"
   d="m 144.047,19.976 c 0,-0.255 -0.208,-0.464 -0.465,-0.464 -0.255,0 -0.463,0.209 -0.463,0.464 0,0.256 0.208,0.464 0.463,0.464 0.257,-0.001 0.465,-0.209 0.465,-0.464"
   inkscape:connector-curvature="0"
   style="fill:#354b59;fill-opacity:1" />
	<path
   id="path23"
   d="m 144.047,28.356 c 0,-0.256 -0.208,-0.464 -0.465,-0.464 -0.255,0 -0.463,0.208 -0.463,0.464 0,0.256 0.208,0.464 0.463,0.464 0.257,0 0.465,-0.208 0.465,-0.464"
   inkscape:connector-curvature="0"
   style="fill:#354b59;fill-opacity:1" />
	<path
   id="path25"
   d="m 144.047,36.738 c 0,-0.256 -0.208,-0.464 -0.465,-0.464 -0.255,0 -0.463,0.208 -0.463,0.464 0,0.256 0.208,0.463 0.463,0.463 0.257,0 0.465,-0.207 0.465,-0.463"
   inkscape:connector-curvature="0"
   style="fill:#354b59;fill-opacity:1" />
	<path
   id="path27"
   d="m 144.047,45.119 c 0,-0.256 -0.208,-0.465 -0.465,-0.465 -0.255,0 -0.463,0.209 -0.463,0.465 0,0.255 0.208,0.464 0.463,0.464 0.257,0 0.465,-0.209 0.465,-0.464"
   inkscape:connector-curvature="0"
   style="fill:#354b59;fill-opacity:1" />
	<path
   id="path29"
   d="m 144.047,53.499 c 0,-0.254 -0.208,-0.463 -0.465,-0.463 -0.255,0 -0.463,0.209 -0.463,0.463 0,0.257 0.208,0.465 0.463,0.465 0.257,0 0.465,-0.208 0.465,-0.465"
   inkscape:connector-curvature="0"
   style="fill:#354b59;fill-opacity:1" />
	<path
   id="path31"
   d="m 144.047,61.881 c 0,-0.257 -0.208,-0.464 -0.465,-0.464 -0.255,0 -0.463,0.207 -0.463,0.464 0,0.256 0.208,0.464 0.463,0.464 0.257,0 0.465,-0.208 0.465,-0.464"
   inkscape:connector-curvature="0"
   style="fill:#354b59;fill-opacity:1" />
	<path
   id="path33"
   d="m 144.047,70.262 c 0,-0.255 -0.208,-0.463 -0.465,-0.463 -0.255,0 -0.463,0.208 -0.463,0.463 0,0.257 0.208,0.464 0.463,0.464 0.257,0 0.465,-0.207 0.465,-0.464"
   inkscape:connector-curvature="0"
   style="fill:#354b59;fill-opacity:1" />
	<path
   id="path35"
   d="m 144.047,78.644 c 0,-0.257 -0.208,-0.465 -0.465,-0.465 -0.255,0 -0.463,0.208 -0.463,0.465 0,0.255 0.208,0.464 0.463,0.464 0.257,-0.001 0.465,-0.21 0.465,-0.464"
   inkscape:connector-curvature="0"
   style="fill:#354b59;fill-opacity:1" />
	<path
   id="path37"
   d="m 144.047,87.023 c 0,-0.254 -0.208,-0.463 -0.465,-0.463 -0.255,0 -0.463,0.209 -0.463,0.463 0,0.257 0.208,0.465 0.463,0.465 0.257,0 0.465,-0.208 0.465,-0.465"
   inkscape:connector-curvature="0"
   style="fill:#354b59;fill-opacity:1" />
	<path
   id="path39"
   d="m 135.755,87.023 c 0,-0.254 -0.207,-0.463 -0.464,-0.463 -0.256,0 -0.463,0.209 -0.463,0.463 0,0.257 0.207,0.465 0.463,0.465 0.257,0 0.464,-0.208 0.464,-0.465"
   inkscape:connector-curvature="0"
   style="fill:#354b59;fill-opacity:1" />
	<path
   id="path41"
   d="m 144.047,11.568 c 0,-0.256 -0.208,-0.464 -0.465,-0.464 -0.255,0 -0.463,0.208 -0.463,0.464 0,0.256 0.208,0.464 0.463,0.464 0.257,0 0.465,-0.208 0.465,-0.464"
   inkscape:connector-curvature="0"
   style="fill:#354b59;fill-opacity:1" />
	<path
   id="path43"
   d="m 137.549,11.568 c 0,-0.256 -0.207,-0.464 -0.464,-0.464 -0.255,0 -0.463,0.208 -0.463,0.464 0,0.256 0.208,0.464 0.463,0.464 0.257,0 0.464,-0.208 0.464,-0.464"
   inkscape:connector-curvature="0"
   style="fill:#354b59;fill-opacity:1" />
	<path
   id="path45"
   d="m 138.716,48.271 h -1.973 c -0.139,0 -0.252,-0.113 -0.252,-0.253 0,-0.14 0.113,-0.253 0.252,-0.253 h 1.973 c 0.139,0 0.252,0.113 0.252,0.253 0,0.14 -0.114,0.253 -0.252,0.253"
   inkscape:connector-curvature="0"
   style="fill:#354b59;fill-opacity:1" />
	<path
   id="path47"
   d="m 138.716,49.204 h -1.973 c -0.139,0 -0.252,-0.112 -0.252,-0.253 0,-0.14 0.113,-0.254 0.252,-0.254 h 1.973 c 0.139,0 0.252,0.114 0.252,0.254 0,0.141 -0.114,0.253 -0.252,0.253"
   inkscape:connector-curvature="0"
   style="fill:#354b59;fill-opacity:1" />
	<path
   id="path49"
   d="m 138.716,50.137 h -1.973 c -0.139,0 -0.252,-0.113 -0.252,-0.252 0,-0.141 0.113,-0.254 0.252,-0.254 h 1.973 c 0.139,0 0.252,0.113 0.252,0.254 0,0.138 -0.114,0.252 -0.252,0.252"
   inkscape:connector-curvature="0"
   style="fill:#354b59;fill-opacity:1" />
	<path
   id="path51"
   d="m 138.716,51.069 h -1.973 c -0.139,0 -0.252,-0.112 -0.252,-0.253 0,-0.139 0.113,-0.252 0.252,-0.252 h 1.973 c 0.139,0 0.252,0.113 0.252,0.252 0,0.141 -0.114,0.253 -0.252,0.253"
   inkscape:connector-curvature="0"
   style="fill:#354b59;fill-opacity:1" />
	<path
   id="path53"
   d="m 138.716,52.003 h -1.973 c -0.139,0 -0.252,-0.113 -0.252,-0.253 0,-0.14 0.113,-0.254 0.252,-0.254 h 1.973 c 0.139,0 0.252,0.114 0.252,0.254 0,0.14 -0.114,0.253 -0.252,0.253"
   inkscape:connector-curvature="0"
   style="fill:#354b59;fill-opacity:1" />
	<path
   id="path55"
   d="m 138.716,52.936 h -1.973 c -0.139,0 -0.252,-0.113 -0.252,-0.252 0,-0.141 0.113,-0.254 0.252,-0.254 h 1.973 c 0.139,0 0.252,0.113 0.252,0.254 0,0.138 -0.114,0.252 -0.252,0.252"
   inkscape:connector-curvature="0"
   style="fill:#354b59;fill-opacity:1" />
	<path
   id="path57"
   d="m 138.716,53.868 h -1.973 c -0.139,0 -0.252,-0.113 -0.252,-0.253 0,-0.139 0.113,-0.253 0.252,-0.253 h 1.973 c 0.139,0 0.252,0.114 0.252,0.253 0,0.14 -0.114,0.253 -0.252,0.253"
   inkscape:connector-curvature="0"
   style="fill:#354b59;fill-opacity:1" />
	<path
   id="path59"
   d="m 138.716,54.802 h -1.973 c -0.139,0 -0.252,-0.113 -0.252,-0.253 0,-0.14 0.113,-0.254 0.252,-0.254 h 1.973 c 0.139,0 0.252,0.114 0.252,0.254 0,0.14 -0.114,0.253 -0.252,0.253"
   inkscape:connector-curvature="0"
   style="fill:#354b59;fill-opacity:1" />
	<path
   id="path61"
   d="m 138.716,55.733 h -1.973 c -0.139,0 -0.252,-0.111 -0.252,-0.252 0,-0.14 0.113,-0.254 0.252,-0.254 h 1.973 c 0.139,0 0.252,0.114 0.252,0.254 0,0.141 -0.114,0.252 -0.252,0.252"
   inkscape:connector-curvature="0"
   style="fill:#354b59;fill-opacity:1" />
	<path
   id="path63"
   d="m 138.716,56.667 h -1.973 c -0.139,0 -0.252,-0.113 -0.252,-0.253 0,-0.139 0.113,-0.253 0.252,-0.253 h 1.973 c 0.139,0 0.252,0.114 0.252,0.253 0,0.14 -0.114,0.253 -0.252,0.253"
   inkscape:connector-curvature="0"
   style="fill:#354b59;fill-opacity:1" />
	<path
   id="path65"
   d="m 138.716,57.6 h -1.973 c -0.139,0 -0.252,-0.112 -0.252,-0.253 0,-0.14 0.113,-0.253 0.252,-0.253 h 1.973 c 0.139,0 0.252,0.113 0.252,0.253 0,0.14 -0.114,0.253 -0.252,0.253"
   inkscape:connector-curvature="0"
   style="fill:#354b59;fill-opacity:1" />
	<path
   id="path67"
   d="m 138.716,58.533 h -1.973 c -0.139,0 -0.252,-0.113 -0.252,-0.253 0,-0.14 0.113,-0.254 0.252,-0.254 h 1.973 c 0.139,0 0.252,0.114 0.252,0.254 0,0.14 -0.114,0.253 -0.252,0.253"
   inkscape:connector-curvature="0"
   style="fill:#354b59;fill-opacity:1" />
	<path
   id="path69"
   d="m 138.716,59.466 h -1.973 c -0.139,0 -0.252,-0.113 -0.252,-0.252 0,-0.141 0.113,-0.254 0.252,-0.254 h 1.973 c 0.139,0 0.252,0.113 0.252,0.254 0,0.139 -0.114,0.252 -0.252,0.252"
   inkscape:connector-curvature="0"
   style="fill:#354b59;fill-opacity:1" />
	<path
   id="path71"
   d="m 138.716,60.398 h -1.973 c -0.139,0 -0.252,-0.112 -0.252,-0.253 0,-0.139 0.113,-0.253 0.252,-0.253 h 1.973 c 0.139,0 0.252,0.114 0.252,0.253 0,0.141 -0.114,0.253 -0.252,0.253"
   inkscape:connector-curvature="0"
   style="fill:#354b59;fill-opacity:1" />
	<path
   id="path73"
   d="m 138.716,61.332 h -1.973 c -0.139,0 -0.252,-0.113 -0.252,-0.253 0,-0.14 0.113,-0.254 0.252,-0.254 h 1.973 c 0.139,0 0.252,0.114 0.252,0.254 0,0.14 -0.114,0.253 -0.252,0.253"
   inkscape:connector-curvature="0"
   style="fill:#354b59;fill-opacity:1" />
	<path
   id="path75"
   d="m 130.534,3.569 h -1.33 c -0.14,0 -0.254,-0.112 -0.254,-0.251 0,-0.141 0.114,-0.254 0.254,-0.254 h 1.33 c 0.14,0 0.253,0.113 0.253,0.254 0,0.139 -0.113,0.251 -0.253,0.251"
   inkscape:connector-curvature="0"
   style="fill:#354b59;fill-opacity:1" />
	<path
   id="path77"
   d="m 130.534,4.503 h -1.33 c -0.14,0 -0.254,-0.113 -0.254,-0.253 0,-0.139 0.114,-0.254 0.254,-0.254 h 1.33 c 0.14,0 0.253,0.115 0.253,0.254 0,0.14 -0.113,0.253 -0.253,0.253"
   inkscape:connector-curvature="0"
   style="fill:#354b59;fill-opacity:1" />
	<path
   id="path79"
   d="m 130.534,5.437 h -1.33 c -0.14,0 -0.254,-0.113 -0.254,-0.253 0,-0.141 0.114,-0.254 0.254,-0.254 h 1.33 c 0.14,0 0.253,0.113 0.253,0.254 0,0.139 -0.113,0.253 -0.253,0.253"
   inkscape:connector-curvature="0"
   style="fill:#354b59;fill-opacity:1" />
	<path
   id="path81"
   d="m 130.534,6.368 h -1.33 c -0.14,0 -0.254,-0.112 -0.254,-0.252 0,-0.14 0.114,-0.254 0.254,-0.254 h 1.33 c 0.14,0 0.253,0.114 0.253,0.254 0,0.14 -0.113,0.252 -0.253,0.252"
   inkscape:connector-curvature="0"
   style="fill:#354b59;fill-opacity:1" />
	<path
   id="path83"
   d="m 130.534,7.302 h -1.33 c -0.14,0 -0.254,-0.113 -0.254,-0.253 0,-0.139 0.114,-0.253 0.254,-0.253 h 1.33 c 0.14,0 0.253,0.114 0.253,0.253 0,0.139 -0.113,0.253 -0.253,0.253"
   inkscape:connector-curvature="0"
   style="fill:#354b59;fill-opacity:1" />
	<path
   id="path85"
   d="m 130.534,8.234 h -1.33 c -0.14,0 -0.254,-0.112 -0.254,-0.253 0,-0.14 0.114,-0.253 0.254,-0.253 h 1.33 c 0.14,0 0.253,0.113 0.253,0.253 0,0.141 -0.113,0.253 -0.253,0.253"
   inkscape:connector-curvature="0"
   style="fill:#354b59;fill-opacity:1" />
	<path
   id="path87"
   d="m 130.534,9.167 h -1.33 c -0.14,0 -0.254,-0.113 -0.254,-0.252 0,-0.14 0.114,-0.254 0.254,-0.254 h 1.33 c 0.14,0 0.253,0.114 0.253,0.254 0,0.139 -0.113,0.252 -0.253,0.252"
   inkscape:connector-curvature="0"
   style="fill:#354b59;fill-opacity:1" />
	<path
   id="path89"
   d="m 130.534,10.101 h -1.33 c -0.14,0 -0.254,-0.113 -0.254,-0.253 0,-0.14 0.114,-0.253 0.254,-0.253 h 1.33 c 0.14,0 0.253,0.113 0.253,0.253 0,0.14 -0.113,0.253 -0.253,0.253"
   inkscape:connector-curvature="0"
   style="fill:#354b59;fill-opacity:1" />
	<path
   id="path91"
   d="m 130.534,11.033 h -1.33 c -0.14,0 -0.254,-0.113 -0.254,-0.253 0,-0.14 0.114,-0.254 0.254,-0.254 h 1.33 c 0.14,0 0.253,0.114 0.253,0.254 0,0.14 -0.113,0.253 -0.253,0.253"
   inkscape:connector-curvature="0"
   style="fill:#354b59;fill-opacity:1" />
	<path
   id="path93"
   d="m 130.534,11.966 h -1.33 c -0.14,0 -0.254,-0.113 -0.254,-0.252 0,-0.14 0.114,-0.254 0.254,-0.254 h 1.33 c 0.14,0 0.253,0.114 0.253,0.254 0,0.139 -0.113,0.252 -0.253,0.252"
   inkscape:connector-curvature="0"
   style="fill:#354b59;fill-opacity:1" />
	<path
   id="path95"
   d="m 132.808,3.569 h -1.33 c -0.14,0 -0.254,-0.112 -0.254,-0.251 0,-0.141 0.114,-0.254 0.254,-0.254 h 1.33 c 0.141,0 0.253,0.113 0.253,0.254 0,0.139 -0.113,0.251 -0.253,0.251"
   inkscape:connector-curvature="0"
   style="fill:#354b59;fill-opacity:1" />
	<path
   id="path97"
   d="m 132.808,4.503 h -1.33 c -0.14,0 -0.254,-0.113 -0.254,-0.253 0,-0.139 0.114,-0.254 0.254,-0.254 h 1.33 c 0.141,0 0.253,0.115 0.253,0.254 0,0.14 -0.113,0.253 -0.253,0.253"
   inkscape:connector-curvature="0"
   style="fill:#354b59;fill-opacity:1" />
	<path
   id="path99"
   d="m 132.808,5.437 h -1.33 c -0.14,0 -0.254,-0.113 -0.254,-0.253 0,-0.141 0.114,-0.254 0.254,-0.254 h 1.33 c 0.141,0 0.253,0.113 0.253,0.254 0,0.139 -0.113,0.253 -0.253,0.253"
   inkscape:connector-curvature="0"
   style="fill:#354b59;fill-opacity:1" />
	<path
   id="path101"
   d="m 132.808,6.368 h -1.33 c -0.14,0 -0.254,-0.112 -0.254,-0.252 0,-0.14 0.114,-0.254 0.254,-0.254 h 1.33 c 0.141,0 0.253,0.114 0.253,0.254 0,0.14 -0.113,0.252 -0.253,0.252"
   inkscape:connector-curvature="0"
   style="fill:#354b59;fill-opacity:1" />
	<path
   id="path103"
   d="m 132.808,7.302 h -1.33 c -0.14,0 -0.254,-0.113 -0.254,-0.253 0,-0.139 0.114,-0.253 0.254,-0.253 h 1.33 c 0.141,0 0.253,0.114 0.253,0.253 0,0.139 -0.113,0.253 -0.253,0.253"
   inkscape:connector-curvature="0"
   style="fill:#354b59;fill-opacity:1" />
	<path
   id="path105"
   d="m 132.808,8.234 h -1.33 c -0.14,0 -0.254,-0.112 -0.254,-0.253 0,-0.14 0.114,-0.253 0.254,-0.253 h 1.33 c 0.141,0 0.253,0.113 0.253,0.253 0,0.141 -0.113,0.253 -0.253,0.253"
   inkscape:connector-curvature="0"
   style="fill:#354b59;fill-opacity:1" />
	<path
   id="path107"
   d="m 132.808,9.167 h -1.33 c -0.14,0 -0.254,-0.113 -0.254,-0.252 0,-0.14 0.114,-0.254 0.254,-0.254 h 1.33 c 0.141,0 0.253,0.114 0.253,0.254 0,0.139 -0.113,0.252 -0.253,0.252"
   inkscape:connector-curvature="0"
   style="fill:#354b59;fill-opacity:1" />
	<path
   id="path109"
   d="m 132.808,10.101 h -1.33 c -0.14,0 -0.254,-0.113 -0.254,-0.253 0,-0.14 0.114,-0.253 0.254,-0.253 h 1.33 c 0.141,0 0.253,0.113 0.253,0.253 0,0.14 -0.113,0.253 -0.253,0.253"
   inkscape:connector-curvature="0"
   style="fill:#354b59;fill-opacity:1" />
	<path
   id="path111"
   d="m 132.808,11.033 h -1.33 c -0.14,0 -0.254,-0.113 -0.254,-0.253 0,-0.14 0.114,-0.254 0.254,-0.254 h 1.33 c 0.141,0 0.253,0.114 0.253,0.254 0,0.14 -0.113,0.253 -0.253,0.253"
   inkscape:connector-curvature="0"
   style="fill:#354b59;fill-opacity:1" />
	<path
   id="path113"
   d="m 132.808,11.966 h -1.33 c -0.14,0 -0.254,-0.113 -0.254,-0.252 0,-0.14 0.114,-0.254 0.254,-0.254 h 1.33 c 0.141,0 0.253,0.114 0.253,0.254 0,0.139 -0.113,0.252 -0.253,0.252"
   inkscape:connector-curvature="0"
   style="fill:#354b59;fill-opacity:1" />
	<path
   id="path115"
   d="m 138.716,62.264 h -1.973 c -0.139,0 -0.252,-0.112 -0.252,-0.252 0,-0.14 0.113,-0.253 0.252,-0.253 h 1.973 c 0.139,0 0.252,0.113 0.252,0.253 0,0.14 -0.114,0.252 -0.252,0.252"
   inkscape:connector-curvature="0"
   style="fill:#354b59;fill-opacity:1" />
	<path
   id="path117"
   d="m 138.716,63.197 h -1.973 c -0.139,0 -0.252,-0.113 -0.252,-0.253 0,-0.139 0.113,-0.253 0.252,-0.253 h 1.973 c 0.139,0 0.252,0.114 0.252,0.253 0,0.14 -0.114,0.253 -0.252,0.253"
   inkscape:connector-curvature="0"
   style="fill:#354b59;fill-opacity:1" />
	<path
   id="path119"
   d="m 138.716,64.131 h -1.973 c -0.139,0 -0.252,-0.113 -0.252,-0.253 0,-0.141 0.113,-0.254 0.252,-0.254 h 1.973 c 0.139,0 0.252,0.113 0.252,0.254 0,0.14 -0.114,0.253 -0.252,0.253"
   inkscape:connector-curvature="0"
   style="fill:#354b59;fill-opacity:1" />
	<path
   id="path121"
   d="m 138.716,65.062 h -1.973 c -0.139,0 -0.252,-0.113 -0.252,-0.252 0,-0.14 0.113,-0.254 0.252,-0.254 h 1.973 c 0.139,0 0.252,0.114 0.252,0.254 0,0.139 -0.114,0.252 -0.252,0.252"
   inkscape:connector-curvature="0"
   style="fill:#354b59;fill-opacity:1" />
	<path
   id="path123"
   d="m 138.716,65.996 h -1.973 c -0.139,0 -0.252,-0.113 -0.252,-0.253 0,-0.139 0.113,-0.253 0.252,-0.253 h 1.973 c 0.139,0 0.252,0.114 0.252,0.253 0,0.14 -0.114,0.253 -0.252,0.253"
   inkscape:connector-curvature="0"
   style="fill:#354b59;fill-opacity:1" />
	<path
   id="path125"
   d="m 138.716,66.929 h -1.973 c -0.139,0 -0.252,-0.112 -0.252,-0.253 0,-0.14 0.113,-0.254 0.252,-0.254 h 1.973 c 0.139,0 0.252,0.114 0.252,0.254 0,0.14 -0.114,0.253 -0.252,0.253"
   inkscape:connector-curvature="0"
   style="fill:#354b59;fill-opacity:1" />
	<path
   id="path127"
   d="m 138.716,67.861 h -1.973 c -0.139,0 -0.252,-0.113 -0.252,-0.252 0,-0.14 0.113,-0.254 0.252,-0.254 h 1.973 c 0.139,0 0.252,0.114 0.252,0.254 0,0.139 -0.114,0.252 -0.252,0.252"
   inkscape:connector-curvature="0"
   style="fill:#354b59;fill-opacity:1" />
	<path
   id="path129"
   d="m 141.528,48.271 h -1.972 c -0.14,0 -0.253,-0.113 -0.253,-0.253 0,-0.14 0.113,-0.253 0.253,-0.253 h 1.972 c 0.14,0 0.253,0.113 0.253,0.253 0,0.14 -0.113,0.253 -0.253,0.253"
   inkscape:connector-curvature="0"
   style="fill:#354b59;fill-opacity:1" />
	<path
   id="path131"
   d="m 141.528,49.204 h -1.972 c -0.14,0 -0.253,-0.112 -0.253,-0.253 0,-0.14 0.113,-0.254 0.253,-0.254 h 1.972 c 0.14,0 0.253,0.114 0.253,0.254 0,0.141 -0.113,0.253 -0.253,0.253"
   inkscape:connector-curvature="0"
   style="fill:#354b59;fill-opacity:1" />
	<path
   id="path133"
   d="m 141.528,50.137 h -1.972 c -0.14,0 -0.253,-0.113 -0.253,-0.252 0,-0.141 0.113,-0.254 0.253,-0.254 h 1.972 c 0.14,0 0.253,0.113 0.253,0.254 0,0.138 -0.113,0.252 -0.253,0.252"
   inkscape:connector-curvature="0"
   style="fill:#354b59;fill-opacity:1" />
	<path
   id="path135"
   d="m 141.528,51.069 h -1.972 c -0.14,0 -0.253,-0.112 -0.253,-0.253 0,-0.139 0.113,-0.252 0.253,-0.252 h 1.972 c 0.14,0 0.253,0.113 0.253,0.252 0,0.141 -0.113,0.253 -0.253,0.253"
   inkscape:connector-curvature="0"
   style="fill:#354b59;fill-opacity:1" />
	<path
   id="path137"
   d="m 141.528,52.003 h -1.972 c -0.14,0 -0.253,-0.113 -0.253,-0.253 0,-0.14 0.113,-0.254 0.253,-0.254 h 1.972 c 0.14,0 0.253,0.114 0.253,0.254 0,0.14 -0.113,0.253 -0.253,0.253"
   inkscape:connector-curvature="0"
   style="fill:#354b59;fill-opacity:1" />
	<path
   id="path139"
   d="m 141.528,52.936 h -1.972 c -0.14,0 -0.253,-0.113 -0.253,-0.252 0,-0.141 0.113,-0.254 0.253,-0.254 h 1.972 c 0.14,0 0.253,0.113 0.253,0.254 0,0.138 -0.113,0.252 -0.253,0.252"
   inkscape:connector-curvature="0"
   style="fill:#354b59;fill-opacity:1" />
	<path
   id="path141"
   d="m 141.528,53.868 h -1.972 c -0.14,0 -0.253,-0.113 -0.253,-0.253 0,-0.139 0.113,-0.253 0.253,-0.253 h 1.972 c 0.14,0 0.253,0.114 0.253,0.253 0,0.14 -0.113,0.253 -0.253,0.253"
   inkscape:connector-curvature="0"
   style="fill:#354b59;fill-opacity:1" />
	<path
   id="path143"
   d="m 141.528,54.802 h -1.972 c -0.14,0 -0.253,-0.113 -0.253,-0.253 0,-0.14 0.113,-0.254 0.253,-0.254 h 1.972 c 0.14,0 0.253,0.114 0.253,0.254 0,0.14 -0.113,0.253 -0.253,0.253"
   inkscape:connector-curvature="0"
   style="fill:#354b59;fill-opacity:1" />
	<path
   id="path145"
   d="m 141.528,55.733 h -1.972 c -0.14,0 -0.253,-0.111 -0.253,-0.252 0,-0.14 0.113,-0.254 0.253,-0.254 h 1.972 c 0.14,0 0.253,0.114 0.253,0.254 0,0.141 -0.113,0.252 -0.253,0.252"
   inkscape:connector-curvature="0"
   style="fill:#354b59;fill-opacity:1" />
	<path
   id="path147"
   d="m 141.528,56.667 h -1.972 c -0.14,0 -0.253,-0.113 -0.253,-0.253 0,-0.139 0.113,-0.253 0.253,-0.253 h 1.972 c 0.14,0 0.253,0.114 0.253,0.253 0,0.14 -0.113,0.253 -0.253,0.253"
   inkscape:connector-curvature="0"
   style="fill:#354b59;fill-opacity:1" />
	<path
   id="path149"
   d="m 141.528,57.6 h -1.972 c -0.14,0 -0.253,-0.112 -0.253,-0.253 0,-0.14 0.113,-0.253 0.253,-0.253 h 1.972 c 0.14,0 0.253,0.113 0.253,0.253 0,0.14 -0.113,0.253 -0.253,0.253"
   inkscape:connector-curvature="0"
   style="fill:#354b59;fill-opacity:1" />
	<path
   id="path151"
   d="m 141.528,58.533 h -1.972 c -0.14,0 -0.253,-0.113 -0.253,-0.253 0,-0.14 0.113,-0.254 0.253,-0.254 h 1.972 c 0.14,0 0.253,0.114 0.253,0.254 0,0.14 -0.113,0.253 -0.253,0.253"
   inkscape:connector-curvature="0"
   style="fill:#354b59;fill-opacity:1" />
	<path
   id="path153"
   d="m 141.528,59.466 h -1.972 c -0.14,0 -0.253,-0.113 -0.253,-0.252 0,-0.141 0.113,-0.254 0.253,-0.254 h 1.972 c 0.14,0 0.253,0.113 0.253,0.254 0,0.139 -0.113,0.252 -0.253,0.252"
   inkscape:connector-curvature="0"
   style="fill:#354b59;fill-opacity:1" />
	<path
   id="path155"
   d="m 141.528,60.398 h -1.972 c -0.14,0 -0.253,-0.112 -0.253,-0.253 0,-0.139 0.113,-0.253 0.253,-0.253 h 1.972 c 0.14,0 0.253,0.114 0.253,0.253 0,0.141 -0.113,0.253 -0.253,0.253"
   inkscape:connector-curvature="0"
   style="fill:#354b59;fill-opacity:1" />
	<path
   id="path157"
   d="m 141.528,61.332 h -1.972 c -0.14,0 -0.253,-0.113 -0.253,-0.253 0,-0.14 0.113,-0.254 0.253,-0.254 h 1.972 c 0.14,0 0.253,0.114 0.253,0.254 0,0.14 -0.113,0.253 -0.253,0.253"
   inkscape:connector-curvature="0"
   style="fill:#354b59;fill-opacity:1" />
	<path
   id="path159"
   d="m 141.528,62.264 h -1.972 c -0.14,0 -0.253,-0.112 -0.253,-0.252 0,-0.14 0.113,-0.253 0.253,-0.253 h 1.972 c 0.14,0 0.253,0.113 0.253,0.253 0,0.14 -0.113,0.252 -0.253,0.252"
   inkscape:connector-curvature="0"
   style="fill:#354b59;fill-opacity:1" />
	<path
   id="path161"
   d="m 141.528,63.197 h -1.972 c -0.14,0 -0.253,-0.113 -0.253,-0.253 0,-0.139 0.113,-0.253 0.253,-0.253 h 1.972 c 0.14,0 0.253,0.114 0.253,0.253 0,0.14 -0.113,0.253 -0.253,0.253"
   inkscape:connector-curvature="0"
   style="fill:#354b59;fill-opacity:1" />
	<path
   id="path163"
   d="m 141.528,64.131 h -1.972 c -0.14,0 -0.253,-0.113 -0.253,-0.253 0,-0.141 0.113,-0.254 0.253,-0.254 h 1.972 c 0.14,0 0.253,0.113 0.253,0.254 0,0.14 -0.113,0.253 -0.253,0.253"
   inkscape:connector-curvature="0"
   style="fill:#354b59;fill-opacity:1" />
	<path
   id="path165"
   d="m 141.528,65.062 h -1.972 c -0.14,0 -0.253,-0.113 -0.253,-0.252 0,-0.14 0.113,-0.254 0.253,-0.254 h 1.972 c 0.14,0 0.253,0.114 0.253,0.254 0,0.139 -0.113,0.252 -0.253,0.252"
   inkscape:connector-curvature="0"
   style="fill:#354b59;fill-opacity:1" />
	<path
   id="path167"
   d="m 141.528,65.996 h -1.972 c -0.14,0 -0.253,-0.113 -0.253,-0.253 0,-0.139 0.113,-0.253 0.253,-0.253 h 1.972 c 0.14,0 0.253,0.114 0.253,0.253 0,0.14 -0.113,0.253 -0.253,0.253"
   inkscape:connector-curvature="0"
   style="fill:#354b59;fill-opacity:1" />
	<path
   id="path169"
   d="m 141.528,66.929 h -1.972 c -0.14,0 -0.253,-0.112 -0.253,-0.253 0,-0.14 0.113,-0.254 0.253,-0.254 h 1.972 c 0.14,0 0.253,0.114 0.253,0.254 0,0.14 -0.113,0.253 -0.253,0.253"
   inkscape:connector-curvature="0"
   style="fill:#354b59;fill-opacity:1" />
	<path
   id="path171"
   d="m 141.528,67.861 h -1.972 c -0.14,0 -0.253,-0.113 -0.253,-0.252 0,-0.14 0.113,-0.254 0.253,-0.254 h 1.972 c 0.14,0 0.253,0.114 0.253,0.254 0,0.139 -0.113,0.252 -0.253,0.252"
   inkscape:connector-curvature="0"
   style="fill:#354b59;fill-opacity:1" />
</g><polygon
     id="polygon173"
     points="120.92,0 120.92,1.32 119.041,1.32 119.041,88.413 119.041,91.925 106.984,91.925 106.984,83.608 116.649,83.608 116.649,76.417 105.523,76.417 105.523,59.214 116.537,59.214 116.537,27.894 105.636,27.894 105.636,9.847 116.537,9.847 116.537,6.116 22.813,6.116 22.813,76.642 20.79,76.642 20.79,91.925 18.206,91.925 18.206,63.877 20.004,63.877 20.004,0 "
     style="fill:#6b97b3;fill-opacity:1" /><rect
     id="rect175"
     height="8.2019997"
     width="13.486"
     y="83.722"
     x="81.024002"
     style="fill:#6b97b3;fill-opacity:1" /><rect
     id="rect177"
     height="8.2019997"
     width="13.485"
     y="83.722"
     x="56.750999"
     style="fill:#6b97b3;fill-opacity:1" /><rect
     id="rect179"
     height="8.2019997"
     width="13.486"
     y="83.722"
     x="32.046001"
     style="fill:#6b97b3;fill-opacity:1" /><polygon
     id="polygon181"
     points="108.052,59.214 107.714,59.214 107.714,55.649 31.409,55.649 31.409,75.463 105.523,75.463 105.523,75.798 31.072,75.798 31.072,55.312 108.052,55.312 "
     style="fill:#6b97b3;fill-opacity:1" /><rect
     id="rect183"
     height="20.148001"
     width="0.33700001"
     y="55.480999"
     x="80.612999"
     style="fill:#6b97b3;fill-opacity:1" /><rect
     id="rect185"
     height="2.4449999"
     width="2.586"
     y="25.031"
     x="121.738"
     style="fill:#6b97b3;fill-opacity:1" /><g
     id="g187"
     style="fill:#6b97b3;fill-opacity:1">
	<path
   id="path189"
   d="m 129.868,44.249 c 0,-0.767 -0.62,-1.388 -1.387,-1.388 -0.767,0 -1.388,0.621 -1.388,1.388 0,0.766 0.621,1.388 1.388,1.388 0.767,0 1.387,-0.622 1.387,-1.388"
   inkscape:connector-curvature="0"
   style="fill:#6b97b3;fill-opacity:1" />
	<path
   id="path191"
   d="m 129.868,51.271 c 0,-0.766 -0.62,-1.388 -1.387,-1.388 -0.767,0 -1.388,0.622 -1.388,1.388 0,0.766 0.621,1.388 1.388,1.388 0.767,0 1.387,-0.622 1.387,-1.388"
   inkscape:connector-curvature="0"
   style="fill:#6b97b3;fill-opacity:1" />
	<path
   id="path193"
   d="m 129.868,58.294 c 0,-0.766 -0.62,-1.388 -1.387,-1.388 -0.767,0 -1.388,0.622 -1.388,1.388 0,0.767 0.621,1.388 1.388,1.388 0.767,0 1.387,-0.621 1.387,-1.388"
   inkscape:connector-curvature="0"
   style="fill:#6b97b3;fill-opacity:1" />
	<path
   id="path195"
   d="m 129.868,65.316 c 0,-0.766 -0.62,-1.388 -1.387,-1.388 -0.767,0 -1.388,0.622 -1.388,1.388 0,0.766 0.621,1.389 1.388,1.389 0.767,0 1.387,-0.623 1.387,-1.389"
   inkscape:connector-curvature="0"
   style="fill:#6b97b3;fill-opacity:1" />
	<path
   id="path197"
   d="m 136.743,80.069 c 0,-0.802 -0.649,-1.452 -1.452,-1.452 -0.802,0 -1.451,0.65 -1.451,1.452 0,0.802 0.649,1.453 1.451,1.453 0.803,0 1.452,-0.651 1.452,-1.453"
   inkscape:connector-curvature="0"
   style="fill:#6b97b3;fill-opacity:1" />
	<path
   id="path199"
   d="m 129.934,80.069 c 0,-0.802 -0.649,-1.452 -1.452,-1.452 -0.802,0 -1.452,0.65 -1.452,1.452 0,0.802 0.65,1.453 1.452,1.453 0.802,0 1.452,-0.651 1.452,-1.453"
   inkscape:connector-curvature="0"
   style="fill:#6b97b3;fill-opacity:1" />
	<path
   id="path201"
   d="m 135.291,80.912 h -6.81 c -0.466,0 -0.844,-0.377 -0.844,-0.843 0,-0.466 0.378,-0.843 0.844,-0.843 h 6.81 c 0.466,0 0.843,0.377 0.843,0.843 0,0.466 -0.377,0.843 -0.843,0.843"
   inkscape:connector-curvature="0"
   style="fill:#6b97b3;fill-opacity:1" />
</g><rect
     id="rect203"
     height="12.419"
     width="3.9170001"
     transform="matrix(0.9773,-0.2117,0.2117,0.9773,-1.6685,29.4034)"
     y="16.285"
     x="134.543"
     style="fill:#6b97b3;fill-opacity:1" /></g>
</svg>