<?xml version="1.0" encoding="UTF-8" standalone="no"?>
<svg
   xmlns:dc="http://purl.org/dc/elements/1.1/"
   xmlns:cc="http://creativecommons.org/ns#"
   xmlns:rdf="http://www.w3.org/1999/02/22-rdf-syntax-ns#"
   xmlns:svg="http://www.w3.org/2000/svg"
   xmlns="http://www.w3.org/2000/svg"
   xmlns:sodipodi="http://sodipodi.sourceforge.net/DTD/sodipodi-0.dtd"
   xmlns:inkscape="http://www.inkscape.org/namespaces/inkscape"
   width="157.048"
   height="160.241"
   viewBox="0 0 157.04791 160.24099"
   enable-background="new 0 0 148.129 96.646"
   id="svg2"
   version="1.1"
   inkscape:version="0.48.2 r9819"
   sodipodi:docname="floor0-v2.svg">
  <metadata
     id="metadata210">
    <rdf:RDF>
      <cc:Work
         rdf:about="">
        <dc:format>image/svg+xml</dc:format>
        <dc:type
           rdf:resource="http://purl.org/dc/dcmitype/StillImage" />
        <dc:title></dc:title>
      </cc:Work>
    </rdf:RDF>
  </metadata>
  <defs
     id="defs208" />
  <sodipodi:namedview
     pagecolor="#ffffff"
     bordercolor="#666666"
     borderopacity="1"
     objecttolerance="10"
     gridtolerance="10"
     guidetolerance="10"
     inkscape:pageopacity="0"
     inkscape:pageshadow="2"
     inkscape:window-width="1463"
     inkscape:window-height="1352"
     id="namedview206"
     showgrid="false"
     inkscape:zoom="2.9455633"
     inkscape:cx="103.74988"
     inkscape:cy="119.13374"
     inkscape:window-x="1008"
     inkscape:window-y="6"
     inkscape:window-maximized="0"
     inkscape:current-layer="g4" />
  <g
     transform="matrix(.707 -.707 .707 .707 -8.344 95.241)"
     id="g4">
    <path
       d="m11.8 0h109.12v1.32h14.834s11.463 53.183 12.361 81.279c0 0 .448 4.831-3.822 6.067l-26.071 7.191v-3.708h-11.237l-13.71 4.496v-4.608h-10.9l-13.822 4.608v-4.496h-10.9l-13.599 4.496v-4.496h-10.903l-14.047 4.496v-4.721h-19.104v-69.898h11.8v-22.026z"
       id="path6"
       inkscape:export-filename="/Users/mattgaunt/Programming/Sites/udacity/dist/images/maptiles/path204.png"
       inkscape:export-xdpi="286.58002"
       inkscape:export-ydpi="286.58002"
       style="fill:#354b59;fill-opacity:1"
       fill="#2c497c" />
    <polygon
       points="137.697,10.311 145.002,10.311 145.002,88.414 119.042,88.414 119.042,1.32 135.753,1.32"
       id="polygon8"
       inkscape:export-filename="/Users/mattgaunt/Programming/Sites/udacity/dist/images/maptiles/path204.png"
       inkscape:export-xdpi="286.58002"
       inkscape:export-ydpi="286.58002"
       fill="#4683ec"
       style="fill:#84bbdd;fill-opacity:1" />
    <rect
       height="9.745"
       width="6.171"
       y="2.578"
       x="120.737"
       id="rect10"
       inkscape:export-filename="/Users/mattgaunt/Programming/Sites/udacity/dist/images/maptiles/path204.png"
       inkscape:export-xdpi="286.58002"
       inkscape:export-ydpi="286.58002"
       style="fill:#6b97b3;fill-opacity:1"
       fill="#3664b5" />
    <rect
       height="9.984"
       width="5.056"
       y="2.513"
       x="128.481"
       id="rect12"
       inkscape:export-filename="/Users/mattgaunt/Programming/Sites/udacity/dist/images/maptiles/path204.png"
       inkscape:export-xdpi="286.58002"
       inkscape:export-ydpi="286.58002"
       fill="#3664b5"
       style="fill:#6b97b3;fill-opacity:1" />
    <rect
       height="21.169"
       width="6.294"
       y="47.284"
       x="136.011"
       id="rect14"
       inkscape:export-filename="/Users/mattgaunt/Programming/Sites/udacity/dist/images/maptiles/path204.png"
       inkscape:export-xdpi="286.58002"
       inkscape:export-ydpi="286.58002"
       fill="#3664b5"
       style="fill:#6b97b3;fill-opacity:1" />
    <g
       id="g16"
       inkscape:export-filename="/Users/mattgaunt/Programming/Sites/udacity/dist/images/maptiles/path204.png"
       inkscape:export-xdpi="286.58002"
       inkscape:export-ydpi="286.58002"
       style="opacity:1;fill:#354b59;fill-opacity:1">
      <path
         d="m144.047 19.976c0-.256-.208-.464-.465-.464-.255 0-.463.208-.463.464 0 .255.208.463.463.463.257 0 .465-.208.465-.463"
         id="path18"
         style="fill:#354b59;fill-opacity:1"
         fill="#3664b5" />
      <path
         d="m144.047 28.356c0-.255-.208-.463-.465-.463-.255 0-.463.208-.463.463 0 .256.208.464.463.464.257.001.465-.208.465-.464"
         id="path20"
         style="fill:#354b59;fill-opacity:1"
         fill="#3664b5" />
      <path
         d="m144.047 36.738c0-.256-.208-.464-.465-.464-.255 0-.463.208-.463.464 0 .255.208.463.463.463.257.001.465-.207.465-.463"
         id="path22"
         style="fill:#354b59;fill-opacity:1"
         fill="#3664b5" />
      <path
         d="m144.047 45.119c0-.255-.208-.463-.465-.463-.255 0-.463.208-.463.463 0 .256.208.464.463.464.257 0 .465-.208.465-.464"
         id="path24"
         style="fill:#354b59;fill-opacity:1"
         fill="#3664b5" />
      <path
         d="m144.047 53.5c0-.256-.208-.464-.465-.464-.255 0-.463.208-.463.464 0 .257.208.464.463.464.257 0 .465-.207.465-.464"
         id="path26"
         style="fill:#354b59;fill-opacity:1"
         fill="#3664b5" />
      <path
         d="m144.047 61.882c0-.257-.208-.465-.465-.465-.255 0-.463.208-.463.465 0 .256.208.463.463.463.257 0 .465-.207.465-.463"
         id="path28"
         style="fill:#354b59;fill-opacity:1"
         fill="#3664b5" />
      <path
         d="m144.047 70.263c0-.256-.208-.465-.465-.465-.255 0-.463.209-.463.465s.208.464.463.464c.257 0 .465-.208.465-.464"
         id="path30"
         style="fill:#354b59;fill-opacity:1"
         fill="#3664b5" />
      <path
         d="m144.047 78.644c0-.256-.208-.464-.465-.464-.255 0-.463.208-.463.464s.208.464.463.464c.257-.001.465-.209.465-.464"
         id="path32"
         style="fill:#354b59;fill-opacity:1"
         fill="#3664b5" />
      <path
         d="m144.047 87.024c0-.256-.208-.464-.465-.464-.255 0-.463.208-.463.464 0 .257.208.465.463.465.257 0 .465-.208.465-.465"
         id="path34"
         style="fill:#354b59;fill-opacity:1"
         fill="#3664b5" />
      <path
         d="m135.755 87.024c0-.256-.207-.464-.464-.464-.256 0-.463.208-.463.464 0 .257.207.465.463.465.257 0 .464-.208.464-.465"
         id="path36"
         style="fill:#354b59;fill-opacity:1"
         fill="#3664b5" />
      <path
         d="m144.047 11.569c0-.256-.208-.464-.465-.464-.255 0-.463.208-.463.464 0 .255.208.464.463.464.257 0 .465-.209.465-.464"
         id="path38"
         style="fill:#354b59;fill-opacity:1"
         fill="#3664b5" />
      <path
         d="m137.549 11.569c0-.256-.207-.464-.464-.464-.255 0-.463.208-.463.464 0 .255.208.464.463.464.257 0 .464-.209.464-.464"
         id="path40"
         style="fill:#354b59;fill-opacity:1"
         fill="#3664b5" />
      <path
         d="m138.716 48.271h-1.973c-.139 0-.252-.113-.252-.252 0-.14.113-.254.252-.254h1.973c.139 0 .252.114.252.254 0 .139-.114.252-.252.252"
         id="path42"
         style="fill:#354b59;fill-opacity:1"
         fill="#2c497c" />
      <path
         d="m138.716 49.204h-1.973c-.139 0-.252-.113-.252-.252 0-.141.113-.254.252-.254h1.973c.139 0 .252.113.252.254 0 .139-.114.252-.252.252"
         id="path44"
         style="fill:#354b59;fill-opacity:1"
         fill="#2c497c" />
      <path
         d="m138.716 50.138h-1.973c-.139 0-.252-.113-.252-.253s.113-.254.252-.254h1.973c.139 0 .252.114.252.254s-.114.253-.252.253"
         id="path46"
         style="fill:#354b59;fill-opacity:1"
         fill="#2c497c" />
      <path
         d="m138.716 51.069h-1.973c-.139 0-.252-.112-.252-.252s.113-.253.252-.253h1.973c.139 0 .252.113.252.253s-.114.252-.252.252"
         id="path48"
         style="fill:#354b59;fill-opacity:1"
         fill="#2c497c" />
      <path
         d="m138.716 52.003h-1.973c-.139 0-.252-.113-.252-.253s.113-.253.252-.253h1.973c.139 0 .252.113.252.253s-.114.253-.252.253"
         id="path50"
         style="fill:#354b59;fill-opacity:1"
         fill="#2c497c" />
      <path
         d="m138.716 52.937h-1.973c-.139 0-.252-.113-.252-.253s.113-.254.252-.254h1.973c.139 0 .252.114.252.254s-.114.253-.252.253"
         id="path52"
         style="fill:#354b59;fill-opacity:1"
         fill="#2c497c" />
      <path
         d="m138.716 53.868h-1.973c-.139 0-.252-.113-.252-.252 0-.14.113-.254.252-.254h1.973c.139 0 .252.114.252.254 0 .139-.114.252-.252.252"
         id="path54"
         style="fill:#354b59;fill-opacity:1"
         fill="#2c497c" />
      <path
         d="m138.716 54.802h-1.973c-.139 0-.252-.113-.252-.253s.113-.253.252-.253h1.973c.139 0 .252.113.252.253s-.114.253-.252.253"
         id="path56"
         style="fill:#354b59;fill-opacity:1"
         fill="#2c497c" />
      <path
         d="m138.716 55.734h-1.973c-.139 0-.252-.112-.252-.253 0-.14.113-.254.252-.254h1.973c.139 0 .252.114.252.254 0 .141-.114.253-.252.253"
         id="path58"
         style="fill:#354b59;fill-opacity:1"
         fill="#2c497c" />
      <path
         d="m138.716 56.667h-1.973c-.139 0-.252-.112-.252-.252s.113-.254.252-.254h1.973c.139 0 .252.114.252.254s-.114.252-.252.252"
         id="path60"
         style="fill:#354b59;fill-opacity:1"
         fill="#2c497c" />
      <path
         d="m138.716 57.601h-1.973c-.139 0-.252-.113-.252-.254 0-.139.113-.253.252-.253h1.973c.139 0 .252.114.252.253 0 .14-.114.254-.252.254"
         id="path62"
         style="fill:#354b59;fill-opacity:1"
         fill="#2c497c" />
      <path
         d="m138.716 58.533h-1.973c-.139 0-.252-.113-.252-.253s.113-.254.252-.254h1.973c.139 0 .252.114.252.254s-.114.253-.252.253"
         id="path64"
         style="fill:#354b59;fill-opacity:1"
         fill="#2c497c" />
      <path
         d="m138.716 59.466h-1.973c-.139 0-.252-.113-.252-.252 0-.141.113-.254.252-.254h1.973c.139 0 .252.113.252.254 0 .139-.114.252-.252.252"
         id="path66"
         style="fill:#354b59;fill-opacity:1"
         fill="#2c497c" />
      <path
         d="m138.716 60.399h-1.973c-.139 0-.252-.113-.252-.253s.113-.254.252-.254h1.973c.139 0 .252.114.252.254s-.114.253-.252.253"
         id="path68"
         style="fill:#354b59;fill-opacity:1"
         fill="#2c497c" />
      <path
         d="m138.716 61.331h-1.973c-.139 0-.252-.113-.252-.252 0-.14.113-.254.252-.254h1.973c.139 0 .252.114.252.254 0 .139-.114.252-.252.252"
         id="path70"
         style="fill:#354b59;fill-opacity:1"
         fill="#2c497c" />
      <path
         d="m130.534 3.57h-1.33c-.14 0-.254-.113-.254-.252s.114-.253.254-.253h1.33c.14 0 .253.114.253.253s-.113.252-.253.252"
         id="path72"
         style="fill:#354b59;fill-opacity:1"
         fill="#2c497c" />
      <path
         d="m130.534 4.503h-1.33c-.14 0-.254-.113-.254-.252 0-.14.114-.254.254-.254h1.33c.14 0 .253.114.253.254 0 .139-.113.252-.253.252"
         id="path74"
         style="fill:#354b59;fill-opacity:1"
         fill="#2c497c" />
      <path
         d="m130.534 5.436h-1.33c-.14 0-.254-.113-.254-.252 0-.14.114-.254.254-.254h1.33c.14 0 .253.114.253.254 0 .139-.113.252-.253.252"
         id="path76"
         style="fill:#354b59;fill-opacity:1"
         fill="#2c497c" />
      <path
         d="m130.534 6.369h-1.33c-.14 0-.254-.113-.254-.253s.114-.253.254-.253h1.33c.14 0 .253.114.253.253 0 .14-.113.253-.253.253"
         id="path78"
         style="fill:#354b59;fill-opacity:1"
         fill="#2c497c" />
      <path
         d="m130.534 7.302h-1.33c-.14 0-.254-.113-.254-.252s.114-.254.254-.254h1.33c.14 0 .253.114.253.254s-.113.252-.253.252"
         id="path80"
         style="fill:#354b59;fill-opacity:1"
         fill="#2c497c" />
      <path
         d="m130.534 8.234h-1.33c-.14 0-.254-.113-.254-.252s.114-.253.254-.253h1.33c.14 0 .253.114.253.253 0 .14-.113.252-.253.252"
         id="path82"
         style="fill:#354b59;fill-opacity:1"
         fill="#2c497c" />
      <path
         d="m130.534 9.167h-1.33c-.14 0-.254-.113-.254-.252s.114-.253.254-.253h1.33c.14 0 .253.114.253.253s-.113.252-.253.252"
         id="path84"
         style="fill:#354b59;fill-opacity:1"
         fill="#2c497c" />
      <path
         d="m130.534 10.1h-1.33c-.14 0-.254-.113-.254-.252 0-.14.114-.254.254-.254h1.33c.14 0 .253.114.253.254 0 .139-.113.252-.253.252"
         id="path86"
         style="fill:#354b59;fill-opacity:1"
         fill="#2c497c" />
      <path
         d="m130.534 11.033h-1.33c-.14 0-.254-.113-.254-.252 0-.14.114-.253.254-.253h1.33c.14 0 .253.114.253.253s-.113.252-.253.252"
         id="path88"
         style="fill:#354b59;fill-opacity:1"
         fill="#2c497c" />
      <path
         d="m130.534 11.966h-1.33c-.14 0-.254-.113-.254-.252s.114-.254.254-.254h1.33c.14 0 .253.114.253.254s-.113.252-.253.252"
         id="path90"
         style="fill:#354b59;fill-opacity:1"
         fill="#2c497c" />
      <path
         d="m132.808 3.57h-1.33c-.14 0-.254-.113-.254-.252s.114-.253.254-.253h1.33c.141 0 .253.114.253.253s-.113.252-.253.252"
         id="path92"
         style="fill:#354b59;fill-opacity:1"
         fill="#2c497c" />
      <path
         d="m132.808 4.503h-1.33c-.14 0-.254-.113-.254-.252 0-.14.114-.254.254-.254h1.33c.141 0 .253.114.253.254 0 .139-.113.252-.253.252"
         id="path94"
         style="fill:#354b59;fill-opacity:1"
         fill="#2c497c" />
      <path
         d="m132.808 5.436h-1.33c-.14 0-.254-.113-.254-.252 0-.14.114-.254.254-.254h1.33c.141 0 .253.114.253.254 0 .139-.113.252-.253.252"
         id="path96"
         style="fill:#354b59;fill-opacity:1"
         fill="#2c497c" />
      <path
         d="m132.808 6.369h-1.33c-.14 0-.254-.113-.254-.253s.114-.253.254-.253h1.33c.141 0 .253.114.253.253 0 .14-.113.253-.253.253"
         id="path98"
         style="fill:#354b59;fill-opacity:1"
         fill="#2c497c" />
      <path
         d="m132.808 7.302h-1.33c-.14 0-.254-.113-.254-.252s.114-.254.254-.254h1.33c.141 0 .253.114.253.254s-.113.252-.253.252"
         id="path100"
         style="fill:#354b59;fill-opacity:1"
         fill="#2c497c" />
      <path
         d="m132.808 8.234h-1.33c-.14 0-.254-.113-.254-.252s.114-.253.254-.253h1.33c.141 0 .253.114.253.253 0 .14-.113.252-.253.252"
         id="path102"
         style="fill:#354b59;fill-opacity:1"
         fill="#2c497c" />
      <path
         d="m132.808 9.167h-1.33c-.14 0-.254-.113-.254-.252s.114-.253.254-.253h1.33c.141 0 .253.114.253.253s-.113.252-.253.252"
         id="path104"
         style="fill:#354b59;fill-opacity:1"
         fill="#2c497c" />
      <path
         d="m132.808 10.1h-1.33c-.14 0-.254-.113-.254-.252 0-.14.114-.254.254-.254h1.33c.141 0 .253.114.253.254 0 .139-.113.252-.253.252"
         id="path106"
         style="fill:#354b59;fill-opacity:1"
         fill="#2c497c" />
      <path
         d="m132.808 11.033h-1.33c-.14 0-.254-.113-.254-.252 0-.14.114-.253.254-.253h1.33c.141 0 .253.114.253.253s-.113.252-.253.252"
         id="path108"
         style="fill:#354b59;fill-opacity:1"
         fill="#2c497c" />
      <path
         d="m132.808 11.966h-1.33c-.14 0-.254-.113-.254-.252s.114-.254.254-.254h1.33c.141 0 .253.114.253.254s-.113.252-.253.252"
         id="path110"
         style="fill:#354b59;fill-opacity:1"
         fill="#2c497c" />
      <path
         d="m138.716 62.265h-1.973c-.139 0-.252-.113-.252-.252 0-.141.113-.254.252-.254h1.973c.139 0 .252.113.252.254 0 .138-.114.252-.252.252"
         id="path112"
         style="fill:#354b59;fill-opacity:1"
         fill="#2c497c" />
      <path
         d="m138.716 63.197h-1.973c-.139 0-.252-.112-.252-.253 0-.139.113-.253.252-.253h1.973c.139 0 .252.114.252.253 0 .141-.114.253-.252.253"
         id="path114"
         style="fill:#354b59;fill-opacity:1"
         fill="#2c497c" />
      <path
         d="m138.716 64.13h-1.973c-.139 0-.252-.113-.252-.252 0-.14.113-.254.252-.254h1.973c.139 0 .252.114.252.254 0 .139-.114.252-.252.252"
         id="path116"
         style="fill:#354b59;fill-opacity:1"
         fill="#2c497c" />
      <path
         d="m138.716 65.063h-1.973c-.139 0-.252-.113-.252-.253s.113-.253.252-.253h1.973c.139 0 .252.113.252.253s-.114.253-.252.253"
         id="path118"
         style="fill:#354b59;fill-opacity:1"
         fill="#2c497c" />
      <path
         d="m138.716 65.996h-1.973c-.139 0-.252-.112-.252-.253 0-.139.113-.254.252-.254h1.973c.139 0 .252.115.252.254 0 .141-.114.253-.252.253"
         id="path120"
         style="fill:#354b59;fill-opacity:1"
         fill="#2c497c" />
      <path
         d="m138.716 66.929h-1.973c-.139 0-.252-.112-.252-.252s.113-.254.252-.254h1.973c.139 0 .252.114.252.254s-.114.252-.252.252"
         id="path122"
         style="fill:#354b59;fill-opacity:1"
         fill="#2c497c" />
      <path
         d="m138.716 67.862h-1.973c-.139 0-.252-.113-.252-.252 0-.141.113-.254.252-.254h1.973c.139 0 .252.113.252.254 0 .139-.114.252-.252.252"
         id="path124"
         style="fill:#354b59;fill-opacity:1"
         fill="#2c497c" />
      <path
         d="m141.528 48.271h-1.972c-.14 0-.253-.113-.253-.252 0-.14.113-.254.253-.254h1.972c.14 0 .253.114.253.254 0 .139-.113.252-.253.252"
         id="path126"
         style="fill:#354b59;fill-opacity:1"
         fill="#2c497c" />
      <path
         d="m141.528 49.204h-1.972c-.14 0-.253-.113-.253-.252 0-.141.113-.254.253-.254h1.972c.14 0 .253.113.253.254 0 .139-.113.252-.253.252"
         id="path128"
         style="fill:#354b59;fill-opacity:1"
         fill="#2c497c" />
      <path
         d="m141.528 50.138h-1.972c-.14 0-.253-.113-.253-.253s.113-.254.253-.254h1.972c.14 0 .253.114.253.254s-.113.253-.253.253"
         id="path130"
         style="fill:#354b59;fill-opacity:1"
         fill="#2c497c" />
      <path
         d="m141.528 51.069h-1.972c-.14 0-.253-.112-.253-.252s.113-.253.253-.253h1.972c.14 0 .253.113.253.253s-.113.252-.253.252"
         id="path132"
         style="fill:#354b59;fill-opacity:1"
         fill="#2c497c" />
      <path
         d="m141.528 52.003h-1.972c-.14 0-.253-.113-.253-.253s.113-.253.253-.253h1.972c.14 0 .253.113.253.253s-.113.253-.253.253"
         id="path134"
         style="fill:#354b59;fill-opacity:1"
         fill="#2c497c" />
      <path
         d="m141.528 52.937h-1.972c-.14 0-.253-.113-.253-.253s.113-.254.253-.254h1.972c.14 0 .253.114.253.254s-.113.253-.253.253"
         id="path136"
         style="fill:#354b59;fill-opacity:1"
         fill="#2c497c" />
      <path
         d="m141.528 53.868h-1.972c-.14 0-.253-.113-.253-.252 0-.14.113-.254.253-.254h1.972c.14 0 .253.114.253.254 0 .139-.113.252-.253.252"
         id="path138"
         style="fill:#354b59;fill-opacity:1"
         fill="#2c497c" />
      <path
         d="m141.528 54.802h-1.972c-.14 0-.253-.113-.253-.253s.113-.253.253-.253h1.972c.14 0 .253.113.253.253s-.113.253-.253.253"
         id="path140"
         style="fill:#354b59;fill-opacity:1"
         fill="#2c497c" />
      <path
         d="m141.528 55.734h-1.972c-.14 0-.253-.112-.253-.253 0-.14.113-.254.253-.254h1.972c.14 0 .253.114.253.254 0 .141-.113.253-.253.253"
         id="path142"
         style="fill:#354b59;fill-opacity:1"
         fill="#2c497c" />
      <path
         d="m141.528 56.667h-1.972c-.14 0-.253-.112-.253-.252s.113-.254.253-.254h1.972c.14 0 .253.114.253.254s-.113.252-.253.252"
         id="path144"
         style="fill:#354b59;fill-opacity:1"
         fill="#2c497c" />
      <path
         d="m141.528 57.601h-1.972c-.14 0-.253-.113-.253-.254 0-.139.113-.253.253-.253h1.972c.14 0 .253.114.253.253 0 .14-.113.254-.253.254"
         id="path146"
         style="fill:#354b59;fill-opacity:1"
         fill="#2c497c" />
      <path
         d="m141.528 58.533h-1.972c-.14 0-.253-.113-.253-.253s.113-.254.253-.254h1.972c.14 0 .253.114.253.254s-.113.253-.253.253"
         id="path148"
         style="fill:#354b59;fill-opacity:1"
         fill="#2c497c" />
      <path
         d="m141.528 59.466h-1.972c-.14 0-.253-.113-.253-.252 0-.141.113-.254.253-.254h1.972c.14 0 .253.113.253.254 0 .139-.113.252-.253.252"
         id="path150"
         style="fill:#354b59;fill-opacity:1"
         fill="#2c497c" />
      <path
         d="m141.528 60.399h-1.972c-.14 0-.253-.113-.253-.253s.113-.254.253-.254h1.972c.14 0 .253.114.253.254s-.113.253-.253.253"
         id="path152"
         style="fill:#354b59;fill-opacity:1"
         fill="#2c497c" />
      <path
         d="m141.528 61.331h-1.972c-.14 0-.253-.113-.253-.252 0-.14.113-.254.253-.254h1.972c.14 0 .253.114.253.254 0 .139-.113.252-.253.252"
         id="path154"
         style="fill:#354b59;fill-opacity:1"
         fill="#2c497c" />
      <path
         d="m141.528 62.265h-1.972c-.14 0-.253-.113-.253-.252 0-.141.113-.254.253-.254h1.972c.14 0 .253.113.253.254 0 .138-.113.252-.253.252"
         id="path156"
         style="fill:#354b59;fill-opacity:1"
         fill="#2c497c" />
      <path
         d="m141.528 63.197h-1.972c-.14 0-.253-.112-.253-.253 0-.139.113-.253.253-.253h1.972c.14 0 .253.114.253.253 0 .141-.113.253-.253.253"
         id="path158"
         style="fill:#354b59;fill-opacity:1"
         fill="#2c497c" />
      <path
         d="m141.528 64.13h-1.972c-.14 0-.253-.113-.253-.252 0-.14.113-.254.253-.254h1.972c.14 0 .253.114.253.254 0 .139-.113.252-.253.252"
         id="path160"
         style="fill:#354b59;fill-opacity:1"
         fill="#2c497c" />
      <path
         d="m141.528 65.063h-1.972c-.14 0-.253-.113-.253-.253s.113-.253.253-.253h1.972c.14 0 .253.113.253.253s-.113.253-.253.253"
         id="path162"
         style="fill:#354b59;fill-opacity:1"
         fill="#2c497c" />
      <path
         d="m141.528 65.996h-1.972c-.14 0-.253-.112-.253-.253 0-.139.113-.254.253-.254h1.972c.14 0 .253.115.253.254 0 .141-.113.253-.253.253"
         id="path164"
         style="fill:#354b59;fill-opacity:1"
         fill="#2c497c" />
      <path
         d="m141.528 66.929h-1.972c-.14 0-.253-.112-.253-.252s.113-.254.253-.254h1.972c.14 0 .253.114.253.254s-.113.252-.253.252"
         id="path166"
         style="fill:#354b59;fill-opacity:1"
         fill="#2c497c" />
      <path
         d="m141.528 67.862h-1.972c-.14 0-.253-.113-.253-.252 0-.141.113-.254.253-.254h1.972c.14 0 .253.113.253.254 0 .139-.113.252-.253.252"
         id="path168"
         style="fill:#354b59;fill-opacity:1"
         fill="#2c497c" />
    </g>
    <polygon
       points="117.076,84.136 18.296,84.136 18.296,6.49 105.39,6.49 105.39,20.649 117.076,20.649 117.076,60.882 105.39,60.882 105.39,77.056 117.076,77.056"
       id="polygon170"
       inkscape:export-filename="/Users/mattgaunt/Programming/Sites/udacity/dist/images/maptiles/path204.png"
       inkscape:export-xdpi="286.58002"
       inkscape:export-ydpi="286.58002"
       fill="#4683ec"
       style="fill:#84bbdd;fill-opacity:1" />
    <polygon
       points="103.929,79.866 18.296,79.866 18.296,84.136 117.076,84.136 117.076,77.056 105.39,77.056 105.39,60.882 117.076,60.882 117.076,20.649 105.39,20.649 105.39,6.49 95.5,6.49 95.5,13.12 105.276,21.886 107.749,21.886 107.749,55.487 95.5,55.487 95.5,72.224 103.929,76.157"
       id="polygon172"
       inkscape:export-filename="/Users/mattgaunt/Programming/Sites/udacity/dist/images/maptiles/path204.png"
       inkscape:export-xdpi="286.58002"
       inkscape:export-ydpi="286.58002"
       style="fill:#6b97b3;fill-opacity:1"
       fill="#3664b5" />
    <g
       id="g174"
       inkscape:export-filename="/Users/mattgaunt/Programming/Sites/udacity/dist/images/maptiles/path204.png"
       inkscape:export-xdpi="286.58002"
       inkscape:export-ydpi="286.58002"
       style="fill:#6b97b3;fill-opacity:1"
       fill="#3664b5">
      <path
         d="m44.172 36.748c0-.558-.453-1.011-1.012-1.011-.559 0-1.013.453-1.013 1.011 0 .559.454 1.011 1.013 1.011.559 0 1.012-.452 1.012-1.011"
         id="path176"
         style="fill:#6b97b3;fill-opacity:1" />
      <path
         d="m69.333 36.748c0-.558-.453-1.011-1.012-1.011-.559 0-1.012.453-1.012 1.011 0 .559.453 1.011 1.012 1.011.559 0 1.012-.452 1.012-1.011"
         id="path178"
         style="fill:#6b97b3;fill-opacity:1" />
      <path
         d="m94.593 36.748c0-.558-.452-1.011-1.011-1.011-.559 0-1.012.453-1.012 1.011 0 .559.453 1.011 1.012 1.011.559 0 1.011-.452 1.011-1.011"
         id="path180"
         style="fill:#6b97b3;fill-opacity:1" />
      <path
         d="m44.172 61.882c0-.559-.453-1.011-1.012-1.011-.559 0-1.013.452-1.013 1.011 0 .559.454 1.012 1.013 1.012.559 0 1.012-.454 1.012-1.012"
         id="path182"
         style="fill:#6b97b3;fill-opacity:1" />
      <path
         d="m69.333 61.882c0-.559-.453-1.011-1.012-1.011-.559 0-1.012.452-1.012 1.011 0 .559.453 1.012 1.012 1.012.559 0 1.012-.454 1.012-1.012"
         id="path184"
         style="fill:#6b97b3;fill-opacity:1" />
      <path
         d="m94.593 61.882c0-.559-.452-1.011-1.011-1.011-.559 0-1.012.452-1.012 1.011 0 .559.453 1.012 1.012 1.012.559 0 1.011-.454 1.011-1.012"
         id="path186"
         style="fill:#6b97b3;fill-opacity:1" />
      <path
         d="m107.108 36.748c0-.558-.452-1.011-1.011-1.011-.558 0-1.012.453-1.012 1.011 0 .559.454 1.011 1.012 1.011.559 0 1.011-.452 1.011-1.011"
         id="path188"
         style="fill:#6b97b3;fill-opacity:1" />
      <path
         d="m107.108 28.356c0-.558-.452-1.011-1.011-1.011-.558 0-1.012.453-1.012 1.011 0 .559.454 1.012 1.012 1.012.559 0 1.011-.452 1.011-1.012"
         id="path190"
         style="fill:#6b97b3;fill-opacity:1" />
      <path
         d="m107.108 45.097c0-.558-.452-1.011-1.011-1.011-.558 0-1.012.453-1.012 1.011 0 .559.454 1.011 1.012 1.011.559 0 1.011-.453 1.011-1.011"
         id="path192"
         style="fill:#6b97b3;fill-opacity:1" />
      <path
         d="m107.108 53.521c0-.559-.452-1.012-1.011-1.012-.558 0-1.012.453-1.012 1.012 0 .559.454 1.012 1.012 1.012.559-.001 1.011-.454 1.011-1.012"
         id="path194"
         style="fill:#6b97b3;fill-opacity:1" />
      <path
         d="m134.674 78.179c0-1.688 1.368-3.055 3.056-3.055s3.057 1.367 3.057 3.055c0 1.689-1.368 3.057-3.057 3.057-1.688-.001-3.056-1.368-3.056-3.057"
         id="path196"
         style="fill:#6b97b3;fill-opacity:1" />
      <path
         d="m127.17 78.179c0-1.688 1.368-3.055 3.056-3.055s3.057 1.367 3.057 3.055c0 1.689-1.368 3.057-3.057 3.057-1.688-.001-3.056-1.368-3.056-3.057"
         id="path198"
         style="fill:#6b97b3;fill-opacity:1" />
      <path
         d="m128.167 19.213c0-1.688 1.368-3.056 3.056-3.056s3.057 1.368 3.057 3.056-1.368 3.056-3.057 3.056c-1.688 0-3.056-1.368-3.056-3.056"
         id="path200"
         style="fill:#6b97b3;fill-opacity:1" />
      <path
         d="m128.167 27.089c0-1.688 1.368-3.056 3.056-3.056s3.057 1.368 3.057 3.056-1.368 3.056-3.057 3.056c-1.688.001-3.056-1.367-3.056-3.056"
         id="path202"
         style="fill:#6b97b3;fill-opacity:1" />
    </g>
    <path
       d="m132.211 66.521c0 1.93-1.564 3.494-3.493 3.494-1.929 0-3.493-1.564-3.493-3.494v-16.774c0-1.929 1.564-3.493 3.493-3.493 1.929 0 3.493 1.564 3.493 3.493v16.774z"
       id="path204"
       inkscape:export-xdpi="286.58002"
       inkscape:export-ydpi="286.58002"
       fill="#3664b5"
       style="fill:#6b97b3;fill-opacity:1" />
  </g>
</svg>
