<?xml version="1.0" encoding="UTF-8" standalone="no"?>
<!-- Created with Inkscape (http://www.inkscape.org/) -->

<svg
   xmlns:dc="http://purl.org/dc/elements/1.1/"
   xmlns:cc="http://creativecommons.org/ns#"
   xmlns:rdf="http://www.w3.org/1999/02/22-rdf-syntax-ns#"
   xmlns:svg="http://www.w3.org/2000/svg"
   xmlns="http://www.w3.org/2000/svg"
   xmlns:xlink="http://www.w3.org/1999/xlink"
   xmlns:sodipodi="http://sodipodi.sourceforge.net/DTD/sodipodi-0.dtd"
   xmlns:inkscape="http://www.inkscape.org/namespaces/inkscape"
   width="31.647943"
   height="53.355167"
   id="svg2"
   version="1.1"
   inkscape:version="0.48.2 r9819"
   inkscape:export-filename="/Users/mattgaunt/Programming/Sites/udacity/app/images/mapmarkers/info.png"
   inkscape:export-xdpi="86.624664"
   inkscape:export-ydpi="86.624664"
   sodipodi:docname="power.svg">
  <defs
     id="defs4">
    <linearGradient
       id="linearGradient4668">
      <stop
         style="stop-color:#ff0000;stop-opacity:1;"
         offset="0"
         id="stop4670" />
      <stop
         style="stop-color:#ff0000;stop-opacity:0;"
         offset="1"
         id="stop4672" />
    </linearGradient>
    <linearGradient
       id="linearGradient4264">
      <stop
         style="stop-color:#cc4a2c;stop-opacity:1;"
         offset="0"
         id="stop4266" />
      <stop
         style="stop-color:#e38f7b;stop-opacity:1;"
         offset="1"
         id="stop4268" />
    </linearGradient>
    <linearGradient
       inkscape:collect="always"
       xlink:href="#linearGradient4264"
       id="linearGradient4515"
       x1="164.05327"
       y1="36.624203"
       x2="164.05327"
       y2="12.21875"
       gradientUnits="userSpaceOnUse" />
    <linearGradient
       inkscape:collect="always"
       xlink:href="#linearGradient4264"
       id="linearGradient4674"
       x1="698.09399"
       y1="614.46613"
       x2="698.09399"
       y2="105.1676"
       gradientUnits="userSpaceOnUse" />
  </defs>
  <sodipodi:namedview
     id="base"
     pagecolor="#ffffff"
     bordercolor="#666666"
     borderopacity="1.0"
     inkscape:pageopacity="0.0"
     inkscape:pageshadow="2"
     inkscape:zoom="8"
     inkscape:cx="-9.523207"
     inkscape:cy="25.619633"
     inkscape:document-units="px"
     inkscape:current-layer="g4654"
     showgrid="false"
     showguides="true"
     inkscape:guide-bbox="true"
     fit-margin-top="0"
     fit-margin-left="0"
     fit-margin-right="0"
     fit-margin-bottom="0"
     inkscape:window-width="1124"
     inkscape:window-height="1147"
     inkscape:window-x="0"
     inkscape:window-y="0"
     inkscape:window-maximized="0">
    <sodipodi:guide
       orientation="1,0"
       position="15.75,30.375"
       id="guide4676" />
    <sodipodi:guide
       orientation="0,1"
       position="19.25,52.875"
       id="guide4678" />
    <sodipodi:guide
       orientation="0,1"
       position="15.75,38"
       id="guide4680" />
  </sodipodi:namedview>
  <metadata
     id="metadata7">
    <rdf:RDF>
      <cc:Work
         rdf:about="">
        <dc:format>image/svg+xml</dc:format>
        <dc:type
           rdf:resource="http://purl.org/dc/dcmitype/StillImage" />
        <dc:title />
      </cc:Work>
    </rdf:RDF>
  </metadata>
  <g
     inkscape:label="Layer 1"
     inkscape:groupmode="layer"
     id="layer1"
     transform="translate(-147.94757,-11.813726)">
    <g
       id="g4654"
       transform="matrix(0.02920684,0,0,0.02920684,143.30845,9.2222801)">
      <title
         id="title4656">Layer 1</title>
      <path
         clip-rule="evenodd"
         stroke-miterlimit="10"
         d="M 702.02692,1819.7159 C 663.26105,1627.2798 594.91095,1467.139 512.12396,1318.7174 450.71698,1208.6238 379.58002,1107.0054 313.75995,1000.246 291.78796,964.60651 272.82599,926.95575 251.71294,889.96832 209.497,816.0108 175.26897,730.26135 177.44396,619.03021 c 2.125,-108.6788 33.208,-195.85708 78.02996,-267.13592 73.71907,-117.23572 197.20107,-213.35619 362.88405,-238.61646 135.46606,-20.653143 262.4751,14.24 352.54297,67.49689 73.60016,43.52087 130.59616,101.65488 173.92006,170.16803 45.22,71.5094 76.3591,155.99075 78.971,266.18536 1.337,56.45642 -7.8049,108.73847 -20.684,152.10559 -13.0339,43.89612 -33.9959,80.58918 -52.646,119.78309 -36.406,76.50787 -82.0489,146.60861 -127.855,216.75081 -136.43702,208.9241 -264.4961,421.992 -320.58008,713.9483 z"
         id="svg_2"
         inkscape:connector-curvature="0"
         style="fill:url(#linearGradient4674);fill-rule:evenodd;stroke:#99361f;stroke-width:37;stroke-miterlimit:10;stroke-opacity:1;fill-opacity:1" />
      <path
         inkscape:connector-curvature="0"
         d="m 700.62674,239.34849 c -126.7698,0 -229.835,102.62419 -229.835,229.38531 0,44.1585 12.957,85.3062 34.5643,120.3043 31.2001,66.0459 71.8234,137.5131 71.8234,195.2706 l 0,14.8129 c 0,10.3569 3.1689,19.8822 8.5298,27.833 l 0,122.54801 28.7293,0 0,14.3647 c 0,15.9161 12.8133,28.7294 28.7294,28.7294 l 114.9175,0 c 15.9161,0 28.7294,-12.8133 28.7294,-28.7294 l 0,-14.3647 28.7293,0 0,-122.54801 c 5.3609,-7.9508 8.5298,-17.4746 8.5298,-27.833 l 0,-14.8129 c 0,-57.7575 40.6233,-129.2218 71.8234,-195.2706 21.6059,-34.9981 34.5643,-76.1443 34.5643,-120.3043 0,-126.76543 -103.0695,-229.38531 -229.8349,-229.38531 z m 0,43.09406 c 103.5076,0 186.7409,82.88567 186.7409,186.29125 0,35.725 -10.5595,69.1545 -28.2812,97.8609 l -1.3503,1.7956 -0.8906,2.2437 c -30.1558,63.8367 -75.8628,135.709 -75.8628,213.6747 l 0,14.8129 c 0,4.5148 -2.2308,6.7342 -6.7342,6.7342 l -73.619,0 -73.619,0 c -4.5091,0 -6.7341,-2.2194 -6.7341,-6.7342 l 0,-14.8129 c 0,-77.9657 -45.7113,-149.838 -75.8628,-213.6747 l -0.8906,-2.2437 -1.3503,-1.7956 c -17.7232,-28.7064 -28.2812,-62.1344 -28.2812,-97.8609 0,-103.40702 83.229,-186.29125 186.7409,-186.29125 z M 606.35844,501.504 a 21.549183,21.549183 0 0 0 -17.9558,29.6272 l 48.4808,122.9976 a 21.549183,21.549183 0 1 0 39.9525,-15.7107 l -48.4808,-122.999 a 21.549183,21.549183 0 0 0 -21.9967,-13.9151 z m 183.5994,0 a 21.549183,21.549183 0 0 0 -17.0595,13.9151 l -48.4808,122.999 a 21.549183,21.549183 0 1 0 39.9525,15.7107 l 48.4808,-122.9976 a 21.549183,21.549183 0 0 0 -22.893,-29.6272 z"
         id="path9127"
         style="fill:#ffffff;fill-opacity:1;fill-rule:nonzero;stroke:none;display:inline;enable-background:new" />
    </g>
  </g>
</svg>
